<svg width="24" height="24" viewBox="0 0 24 24" fill="none" xmlns="http://www.w3.org/2000/svg">
<g clip-path="url(#clip0_376_26767)">
<path d="M12 12V12.01" stroke="#777777" stroke-width="2" stroke-linecap="round" stroke-linejoin="round"/>
<path d="M19.0706 4.92901C18.3205 4.17887 16.8561 4.20443 14.9995 5.00008C13.143 5.79573 11.0465 7.29629 9.17112 9.17165C7.29576 11.047 5.7952 13.1436 4.99955 15.0001C4.2039 16.8566 4.17833 18.321 4.92848 19.0711C5.67862 19.8213 7.14303 19.7957 8.99955 19.0001C10.8561 18.2044 12.9526 16.7039 14.828 14.8285C15.7566 13.8999 16.6029 12.9073 17.3187 11.9072C18.0344 10.9072 18.6056 9.91933 18.9995 9.00008C19.3935 8.08083 19.6026 7.24817 19.6148 6.54966C19.6269 5.85114 19.442 5.30045 19.0706 4.92901" stroke="#777777" stroke-width="2" stroke-linecap="round" stroke-linejoin="round"/>
<path d="M4.92889 4.9289C4.17875 5.67904 4.20431 7.14345 4.99996 8.99997C5.79561 10.8565 7.29617 12.953 9.17153 14.8284C11.0469 16.7038 13.1434 18.2043 15 19C16.8565 19.7956 18.3209 19.8212 19.071 19.071C19.8212 18.3209 19.7956 16.8565 19 15C18.2043 13.1434 16.7037 11.0469 14.8284 9.17154C13.8998 8.24295 12.9071 7.39662 11.9071 6.68086C10.9071 5.9651 9.91921 5.39393 8.99996 4.99996C8.08071 4.606 7.24805 4.39695 6.54954 4.38476C5.85102 4.37256 5.30033 4.55746 4.92889 4.9289" stroke="#777777" stroke-width="2" stroke-linecap="round" stroke-linejoin="round"/>
</g>
<defs>
<clipPath id="clip0_376_26767">
<rect width="24" height="24" fill="white"/>
</clipPath>
</defs>
</svg>
