<svg width="24" height="25" viewBox="0 0 24 25" fill="none" xmlns="http://www.w3.org/2000/svg">
<g clip-path="url(#clip0_376_26453)">
<path d="M19.821 20.7532C19.571 20.8662 19.293 20.9292 19 20.9292H5C4.46957 20.9292 3.96086 20.7185 3.58579 20.3434C3.21071 19.9683 3 19.4596 3 18.9292V9.9292C3 9.39877 3.21071 8.89006 3.58579 8.51499C3.96086 8.13991 4.46957 7.9292 5 7.9292H6C6.292 7.9292 6.568 7.8672 6.818 7.7542M8.29 5.2252C8.38295 5.13143 8.49354 5.057 8.6154 5.0062C8.73726 4.9554 8.86797 4.92923 9 4.9292H15C15.2652 4.9292 15.5196 5.03456 15.7071 5.22209C15.8946 5.40963 16 5.66398 16 5.9292C16 6.45963 16.2107 6.96834 16.5858 7.34341C16.9609 7.71849 17.4696 7.9292 18 7.9292H19C19.5304 7.9292 20.0391 8.13991 20.4142 8.51499C20.7893 8.89006 21 9.39877 21 9.9292V17.9292L8.29 5.2252Z" stroke="#777777" stroke-width="2" stroke-linecap="round" stroke-linejoin="round"/>
<path d="M10.4359 11.3691C10.0487 11.6059 9.7202 11.9275 9.47527 12.3096C9.23034 12.6918 9.0753 13.1245 9.02185 13.5752C8.9684 14.026 9.01792 14.483 9.16669 14.9118C9.31545 15.3406 9.55958 15.7301 9.88069 16.0509C10.2018 16.3717 10.5915 16.6154 11.0205 16.7638C11.4494 16.9121 11.9065 16.9612 12.3572 16.9073C12.8078 16.8534 13.2404 16.698 13.6223 16.4527C14.0042 16.2074 14.3255 15.8786 14.5619 15.4911" stroke="#777777" stroke-width="2" stroke-linecap="round" stroke-linejoin="round"/>
<path d="M3 3.9292L21 21.9292" stroke="#777777" stroke-width="2" stroke-linecap="round" stroke-linejoin="round"/>
</g>
<defs>
<clipPath id="clip0_376_26453">
<rect width="24" height="24" fill="white" transform="translate(0 0.929199)"/>
</clipPath>
</defs>
</svg>
