<svg width="24" height="25" viewBox="0 0 24 25" fill="none" xmlns="http://www.w3.org/2000/svg">
<g clip-path="url(#clip0_376_26464)">
<path d="M5 7.9292H6C6.53043 7.9292 7.03914 7.71849 7.41421 7.34341C7.78929 6.96834 8 6.45963 8 5.9292C8 5.66398 8.10536 5.40963 8.29289 5.22209C8.48043 5.03456 8.73478 4.9292 9 4.9292H15C15.2652 4.9292 15.5196 5.03456 15.7071 5.22209C15.8946 5.40963 16 5.66398 16 5.9292C16 6.45963 16.2107 6.96834 16.5858 7.34341C16.9609 7.71849 17.4696 7.9292 18 7.9292H19C19.5304 7.9292 20.0391 8.13991 20.4142 8.51499C20.7893 8.89006 21 9.39877 21 9.9292V18.9292C21 19.4596 20.7893 19.9683 20.4142 20.3434C20.0391 20.7185 19.5304 20.9292 19 20.9292H5C4.46957 20.9292 3.96086 20.7185 3.58579 20.3434C3.21071 19.9683 3 19.4596 3 18.9292V9.9292C3 9.39877 3.21071 8.89006 3.58579 8.51499C3.96086 8.13991 4.46957 7.9292 5 7.9292" stroke="#777777" stroke-width="2" stroke-linecap="round" stroke-linejoin="round"/>
<path d="M12 16.9292C13.6569 16.9292 15 15.5861 15 13.9292C15 12.2723 13.6569 10.9292 12 10.9292C10.3431 10.9292 9 12.2723 9 13.9292C9 15.5861 10.3431 16.9292 12 16.9292Z" stroke="#777777" stroke-width="2" stroke-linecap="round" stroke-linejoin="round"/>
</g>
<defs>
<clipPath id="clip0_376_26464">
<rect width="24" height="24" fill="white" transform="translate(0 0.929199)"/>
</clipPath>
</defs>
</svg>
