<svg width="24" height="25" viewBox="0 0 24 25" fill="none" xmlns="http://www.w3.org/2000/svg">
<g clip-path="url(#clip0_376_26468)">
<path d="M4 8.9292V6.9292C4 6.39877 4.21071 5.89006 4.58579 5.51499C4.96086 5.13991 5.46957 4.9292 6 4.9292H8" stroke="#777777" stroke-width="2" stroke-linecap="round" stroke-linejoin="round"/>
<path d="M4 16.9292V18.9292C4 19.4596 4.21071 19.9683 4.58579 20.3434C4.96086 20.7185 5.46957 20.9292 6 20.9292H8" stroke="#777777" stroke-width="2" stroke-linecap="round" stroke-linejoin="round"/>
<path d="M16 4.9292H18C18.5304 4.9292 19.0391 5.13991 19.4142 5.51499C19.7893 5.89006 20 6.39877 20 6.9292V8.9292" stroke="#777777" stroke-width="2" stroke-linecap="round" stroke-linejoin="round"/>
<path d="M16 20.9292H18C18.5304 20.9292 19.0391 20.7185 19.4142 20.3434C19.7893 19.9683 20 19.4596 20 18.9292V16.9292" stroke="#777777" stroke-width="2" stroke-linecap="round" stroke-linejoin="round"/>
<path d="M12 15.9292C13.6569 15.9292 15 14.5861 15 12.9292C15 11.2723 13.6569 9.9292 12 9.9292C10.3431 9.9292 9 11.2723 9 12.9292C9 14.5861 10.3431 15.9292 12 15.9292Z" stroke="#777777" stroke-width="2" stroke-linecap="round" stroke-linejoin="round"/>
</g>
<defs>
<clipPath id="clip0_376_26468">
<rect width="24" height="24" fill="white" transform="translate(0 0.929199)"/>
</clipPath>
</defs>
</svg>
