<svg width="24" height="25" viewBox="0 0 24 25" fill="none" xmlns="http://www.w3.org/2000/svg">
<g clip-path="url(#clip0_376_30004)">
<path d="M7.00044 18.9294C5.75272 18.9294 4.5561 18.4553 3.67383 17.6114C2.79155 16.7675 2.2959 15.6229 2.2959 14.4294C2.2959 13.2359 2.79155 12.0913 3.67383 11.2474C4.5561 10.4035 5.75272 9.92939 7.00044 9.92939C7.29513 8.61657 8.15721 7.46288 9.39703 6.72211C10.0109 6.35532 10.6991 6.10094 11.4222 5.97351C12.1453 5.84607 12.8893 5.84807 13.6116 5.97939C14.3338 6.11072 15.0203 6.36879 15.6317 6.73887C16.2432 7.10896 16.7677 7.58381 17.1752 8.13632C17.5828 8.68883 17.8654 9.30817 18.007 9.95899C18.1486 10.6098 18.1464 11.2794 18.0004 11.9294H19.0004C19.9287 11.9294 20.8189 12.2981 21.4753 12.9545C22.1317 13.6109 22.5004 14.5011 22.5004 15.4294C22.5004 16.3577 22.1317 17.2479 21.4753 17.9043C20.8189 18.5606 19.9287 18.9294 19.0004 18.9294H18.0004" stroke="#777777" stroke-width="2" stroke-linecap="round" stroke-linejoin="round"/>
<path d="M9 15.9292L12 12.9292L15 15.9292" stroke="#777777" stroke-width="2" stroke-linecap="round" stroke-linejoin="round"/>
<path d="M12 12.9292V21.9292" stroke="#777777" stroke-width="2" stroke-linecap="round" stroke-linejoin="round"/>
</g>
<defs>
<clipPath id="clip0_376_30004">
<rect width="24" height="24" fill="white" transform="translate(0 0.929199)"/>
</clipPath>
</defs>
</svg>
