<svg width="24" height="25" viewBox="0 0 24 25" fill="none" xmlns="http://www.w3.org/2000/svg">
<g clip-path="url(#clip0_376_24300)">
<path d="M16.7 8.9292C16.501 8.36444 16.1374 7.87216 15.6563 7.51574C15.1751 7.15931 14.5983 6.95503 14 6.9292H10C9.20435 6.9292 8.44129 7.24527 7.87868 7.80788C7.31607 8.37049 7 9.13355 7 9.9292C7 10.7248 7.31607 11.4879 7.87868 12.0505C8.44129 12.6131 9.20435 12.9292 10 12.9292H14C14.7956 12.9292 15.5587 13.2453 16.1213 13.8079C16.6839 14.3705 17 15.1335 17 15.9292C17 16.7248 16.6839 17.4879 16.1213 18.0505C15.5587 18.6131 14.7956 18.9292 14 18.9292H10C9.40175 18.9034 8.82491 18.6991 8.34373 18.3427C7.86255 17.9862 7.49905 17.494 7.3 16.9292" stroke="#777777" stroke-width="2" stroke-linecap="round" stroke-linejoin="round"/>
<path d="M12 18.9292V21.9292M12 3.9292V6.9292V3.9292Z" stroke="#777777" stroke-width="2" stroke-linecap="round" stroke-linejoin="round"/>
</g>
<defs>
<clipPath id="clip0_376_24300">
<rect width="24" height="24" fill="white" transform="translate(0 0.929199)"/>
</clipPath>
</defs>
</svg>
