<svg width="32" height="32" viewBox="0 0 32 32" fill="none" xmlns="http://www.w3.org/2000/svg">
<path d="M29.4127 15.565H3" stroke="#555555" stroke-width="2" stroke-linecap="round" stroke-linejoin="round"/>
<path d="M7.55619 6.46591L3 15.5651V23.4889C3 24.1894 3.27825 24.8612 3.77359 25.3566C4.26893 25.8519 4.94072 26.1302 5.64127 26.1302H26.7714C27.472 26.1302 28.1438 25.8519 28.6391 25.3566C29.1345 24.8612 29.4127 24.1894 29.4127 23.4889V15.5651L24.8565 6.46591C24.6378 6.02583 24.3007 5.65554 23.8831 5.3966C23.4656 5.13755 22.984 5.0003 22.4926 5H9.92013C9.42875 5.0003 8.94712 5.13755 8.5296 5.3966C8.11197 5.65554 7.77491 6.02583 7.55619 6.46591Z" stroke="#555555" stroke-width="2" stroke-linecap="round" stroke-linejoin="round"/>
<path d="M8.28256 20.8477H8.29388" stroke="#555555" stroke-width="2" stroke-linecap="round" stroke-linejoin="round"/>
<path d="M13.5651 20.8477H13.5764" stroke="#555555" stroke-width="2" stroke-linecap="round" stroke-linejoin="round"/>
</svg>
