<svg width="24" height="25" viewBox="0 0 24 25" fill="none" xmlns="http://www.w3.org/2000/svg" stroke-width="1.5">
<g clip-path="url(#clip0_376_24907)">
<path d="M14 3.9292V7.9292C14 8.19442 14.1054 8.44877 14.2929 8.63631C14.4804 8.82384 14.7348 8.9292 15 8.9292H19" stroke="#777777"  stroke-linecap="round" stroke-linejoin="round"/>
<path d="M12 21.9292H7C6.46957 21.9292 5.96086 21.7185 5.58579 21.3434C5.21071 20.9683 5 20.4596 5 19.9292V5.9292C5 5.39877 5.21071 4.89006 5.58579 4.51499C5.96086 4.13991 6.46957 3.9292 7 3.9292H14L19 8.9292V13.4292" stroke="#777777"  stroke-linecap="round" stroke-linejoin="round"/>
<path d="M16.5 20.9292C17.8807 20.9292 19 19.8099 19 18.4292C19 17.0485 17.8807 15.9292 16.5 15.9292C15.1193 15.9292 14 17.0485 14 18.4292C14 19.8099 15.1193 20.9292 16.5 20.9292Z" stroke="#777777"  stroke-linecap="round" stroke-linejoin="round"/>
<path d="M18.5 20.4292L21 22.9292" stroke="#777777"  stroke-linecap="round" stroke-linejoin="round"/>
</g>
<defs>
<clipPath id="clip0_376_24907">
<rect width="24" height="24" fill="white" transform="translate(0 0.929199)"/>
</clipPath>
</defs>
</svg>
