<svg width="24" height="25" viewBox="0 0 24 25" fill="none" xmlns="http://www.w3.org/2000/svg">
<g clip-path="url(#clip0_1907_3005)">
<path d="M17.3663 14.1294C15.0328 14.1294 12.9091 15.5946 12.0815 17.7756L12 17.9903L12.0815 18.2049C12.9092 20.3858 15.0331 21.8511 17.3663 21.8511C19.7003 21.8511 21.8244 20.3859 22.652 18.2049L22.7335 17.9903L22.652 17.7756C21.8242 15.5946 19.7 14.1294 17.3663 14.1294ZM17.3663 20.6413C15.6102 20.6413 14.0048 19.5851 13.3008 17.9904C14.0048 16.3955 15.6101 15.3395 17.3663 15.3395C19.1231 15.3395 20.7284 16.3957 21.4324 17.9904C20.7282 19.5852 19.1228 20.6413 17.3663 20.6413Z" fill="#777777"/>
<path d="M17.3665 15.8745C16.1999 15.8745 15.2507 16.8236 15.2507 17.9903C15.2507 19.157 16.1999 20.1061 17.3665 20.1061C18.5331 20.1061 19.4824 19.157 19.4824 17.9903C19.4824 16.8236 18.5332 15.8745 17.3665 15.8745Z" fill="#777777"/>
<path d="M7.80005 4.9292H3.80005C3.26962 4.9292 2.76091 5.13991 2.38584 5.51499C2.01076 5.89006 1.80005 6.39877 1.80005 6.9292V17.9292C1.80005 18.4596 2.01076 18.9683 2.38584 19.3434C2.76091 19.7185 3.26962 19.9292 3.80005 19.9292H10.8V16.9292C10.8 14.72 12.5909 12.9292 14.8 12.9292H19.8V9.9292C19.8 9.39877 19.5893 8.89006 19.2143 8.51499C18.8392 8.13991 18.3305 7.9292 17.8 7.9292H10.8L7.80005 4.9292Z" fill="#777777" stroke="#777777" stroke-linecap="round" stroke-linejoin="round"/>
</g>
<defs>
<clipPath id="clip0_1907_3005">
<rect width="24" height="24" fill="white" transform="translate(0 0.929199)"/>
</clipPath>
</defs>
</svg>
