<svg width="24" height="25" viewBox="0 0 24 25" fill="none" xmlns="http://www.w3.org/2000/svg">
<g clip-path="url(#clip0_376_24782)">
<path d="M17 17.9292V19.9292C17 20.4596 16.7893 20.9683 16.4142 21.3434C16.0391 21.7185 15.5304 21.9292 15 21.9292H5C4.46957 21.9292 3.96086 21.7185 3.58579 21.3434C3.21071 20.9683 3 20.4596 3 19.9292V10.9292C3 10.3988 3.21071 9.89006 3.58579 9.51499C3.96086 9.13991 4.46957 8.9292 5 8.9292H7" stroke="#777777" stroke-width="2" stroke-linecap="round" stroke-linejoin="round"/>
<path d="M9 4.9292H12L14 6.9292H19C19.5304 6.9292 20.0391 7.13991 20.4142 7.51499C20.7893 7.89006 21 8.39877 21 8.9292V15.9292C21 16.4596 20.7893 16.9683 20.4142 17.3434C20.0391 17.7185 19.5304 17.9292 19 17.9292H9C8.46957 17.9292 7.96086 17.7185 7.58579 17.3434C7.21071 16.9683 7 16.4596 7 15.9292V6.9292C7 6.39877 7.21071 5.89006 7.58579 5.51499C7.96086 5.13991 8.46957 4.9292 9 4.9292Z" stroke="#777777" stroke-width="2" stroke-linecap="round" stroke-linejoin="round"/>
</g>
<defs>
<clipPath id="clip0_376_24782">
<rect width="24" height="24" fill="white" transform="translate(0 0.929199)"/>
</clipPath>
</defs>
</svg>
