<svg width="25" height="25" viewBox="0 0 25 25" fill="none" xmlns="http://www.w3.org/2000/svg" stroke-width='1.2'>
<path d="M22.9166 12.5C22.9166 6.74703 18.2529 2.08333 12.5 2.08333C6.74701 2.08333 2.08331 6.74703 2.08331 12.5C2.08331 18.253 6.74701 22.9167 12.5 22.9167C18.2529 22.9167 22.9166 18.253 22.9166 12.5Z" stroke="#555555"/>
<path d="M12.5208 8.33333C12.659 8.33333 12.7914 8.38821 12.8891 8.48588C12.9868 8.58356 13.0417 8.71603 13.0417 8.85417C13.0417 8.9923 12.9868 9.12478 12.8891 9.22245C12.7914 9.32013 12.659 9.375 12.5208 9.375C12.3827 9.375 12.2502 9.32013 12.1525 9.22245C12.0549 9.12478 12 8.9923 12 8.85417C12 8.71603 12.0549 8.58356 12.1525 8.48588C12.2502 8.38821 12.3827 8.33333 12.5208 8.33333Z" fill="#555555" stroke="#555555"  stroke-linecap="round" stroke-linejoin="round"/>
<path d="M12.5 16.6667V11.4583" stroke="#555555" stroke-linecap="round" stroke-linejoin="round"/>
</svg>
