<svg width="24" height="24" viewBox="0 0 24 24" fill="none" xmlns="http://www.w3.org/2000/svg">
<g clip-path="url(#clip0_376_28741)">
<path d="M3 3L21 21" stroke="#777777" stroke-width="2" stroke-linecap="round" stroke-linejoin="round"/>
<path d="M15 11H17C17.5304 11 18.0391 11.2107 18.4142 11.5858C18.7893 11.9609 19 12.4696 19 13V15M19 19C19 19.5304 18.7893 20.0391 18.4142 20.4142C18.0391 20.7893 17.5304 21 17 21H7C6.46957 21 5.96086 20.7893 5.58579 20.4142C5.21071 20.0391 5 19.5304 5 19V13C5 12.4696 5.21071 11.9609 5.58579 11.5858C5.96086 11.2107 6.46957 11 7 11H11L19 19Z" stroke="#777777" stroke-width="2" stroke-linecap="round" stroke-linejoin="round"/>
<path d="M12 17C12.5523 17 13 16.5523 13 16C13 15.4477 12.5523 15 12 15C11.4477 15 11 15.4477 11 16C11 16.5523 11.4477 17 12 17Z" stroke="#777777" stroke-width="2" stroke-linecap="round" stroke-linejoin="round"/>
<path d="M8.712 4.72205C9.19742 4.02139 9.89398 3.49411 10.7001 3.21711C11.5062 2.9401 12.3798 2.92786 13.1933 3.18215C14.0069 3.43645 14.718 3.94399 15.2229 4.63078C15.7277 5.31756 16 6.14766 16 7.00005V11.0001M8 11.0001V8.00005V11.0001Z" stroke="#777777" stroke-width="2" stroke-linecap="round" stroke-linejoin="round"/>
</g>
<defs>
<clipPath id="clip0_376_28741">
<rect width="24" height="24" fill="white"/>
</clipPath>
</defs>
</svg>
