<svg width="24" height="24" viewBox="0 0 24 24" fill="none" xmlns="http://www.w3.org/2000/svg">
<path d="M15.6667 8.66666V6.99999C15.6667 6.55797 15.4911 6.13405 15.1785 5.82149C14.8659 5.50892 14.442 5.33333 14 5.33333H8.16667C7.72464 5.33333 7.30072 5.50892 6.98816 5.82149C6.67559 6.13405 6.5 6.55797 6.5 6.99999V17C6.5 17.442 6.67559 17.8659 6.98816 18.1785C7.30072 18.4911 7.72464 18.6667 8.16667 18.6667H14C14.442 18.6667 14.8659 18.4911 15.1785 18.1785C15.4911 17.8659 15.6667 17.442 15.6667 17V15.3333M9.83333 12H21.5M21.5 12L19 9.49999M21.5 12L19 14.5" stroke="#777777" stroke-width="2" stroke-linecap="round" stroke-linejoin="round"/>
</svg>
