<svg width="24" height="25" viewBox="0 0 24 25" fill="none" xmlns="http://www.w3.org/2000/svg">
<g clip-path="url(#clip0_376_27904)">
<path d="M3 3.9292L21 21.9292" stroke="#777777" stroke-width="2" stroke-linecap="round" stroke-linejoin="round"/>
<path d="M14.9999 11.9292C14.9999 11.1335 14.6839 10.3705 14.1213 9.80788C13.5587 9.24527 12.7956 8.9292 11.9999 8.9292M9.43995 10.3642C9.08835 10.9388 8.94038 11.615 9.01986 12.284C9.09934 12.9529 9.40165 13.5756 9.8781 14.0518C10.3546 14.5281 10.9774 14.8301 11.6464 14.9092C12.3154 14.9884 12.9915 14.8401 13.5659 14.4882L9.43995 10.3642Z" stroke="#777777" stroke-width="2" stroke-linecap="round" stroke-linejoin="round"/>
<path d="M17.1596 18.0852L13.4146 21.8292C13.0396 22.2038 12.5312 22.4142 12.0011 22.4142C11.471 22.4142 10.9626 22.2038 10.5876 21.8292L6.3436 17.5862C4.93 16.1728 4.09675 14.2814 4.00791 12.2844C3.91907 10.2874 4.58108 8.32949 5.8636 6.79618M8.0476 4.97118C9.57065 4.10391 11.3364 3.76081 13.0733 3.9946C14.8103 4.22839 16.4225 5.02613 17.662 6.26522C18.9016 7.5043 19.6999 9.11617 19.9343 10.8531C20.1688 12.59 19.8263 14.3558 18.9596 15.8792L8.0476 4.97118Z" stroke="#777777" stroke-width="2" stroke-linecap="round" stroke-linejoin="round"/>
</g>
<defs>
<clipPath id="clip0_376_27904">
<rect width="24" height="24" fill="white" transform="translate(0 0.929199)"/>
</clipPath>
</defs>
</svg>
