<svg width="66" height="19" viewBox="0 0 66 19" fill="none" xmlns="http://www.w3.org/2000/svg">
<path d="M0.0160002 17.9292V1.0092H2.2L8.728 15.7212H8.008L14.536 1.0092H16.696V17.9292H14.44V4.3932H15.232L9.136 17.9292H7.576L1.48 4.3932H2.296V17.9292H0.0160002ZM26.1102 18.1452C24.1582 18.1452 22.6222 17.5932 21.5022 16.4892C20.3822 15.3852 19.8222 13.8572 19.8222 11.9052C19.8222 10.6412 20.0622 9.5372 20.5422 8.5932C21.0382 7.6492 21.7182 6.9212 22.5822 6.4092C23.4622 5.8812 24.4782 5.6172 25.6302 5.6172C26.7662 5.6172 27.7182 5.8572 28.4862 6.3372C29.2542 6.8172 29.8382 7.4972 30.2382 8.3772C30.6382 9.2412 30.8382 10.2652 30.8382 11.4492V12.2172H21.7182V10.8252H29.1822L28.7742 11.1372C28.7742 9.9372 28.5022 9.0092 27.9582 8.3532C27.4302 7.6812 26.6622 7.3452 25.6542 7.3452C24.5342 7.3452 23.6702 7.7372 23.0622 8.5212C22.4542 9.2892 22.1502 10.3532 22.1502 11.7132V11.9532C22.1502 13.3772 22.4942 14.4492 23.1822 15.1692C23.8862 15.8892 24.8782 16.2492 26.1582 16.2492C26.8622 16.2492 27.5182 16.1532 28.1262 15.9612C28.7502 15.7532 29.3422 15.4172 29.9022 14.9532L30.6942 16.6092C30.1342 17.1052 29.4542 17.4892 28.6542 17.7612C27.8542 18.0172 27.0062 18.1452 26.1102 18.1452ZM38.2518 18.1452C37.1958 18.1452 36.2598 17.8972 35.4438 17.4012C34.6438 16.9052 34.0198 16.1852 33.5718 15.2412C33.1398 14.2972 32.9238 13.1772 32.9238 11.8812C32.9238 10.5692 33.1398 9.4492 33.5718 8.5212C34.0198 7.5932 34.6438 6.8812 35.4438 6.3852C36.2598 5.8732 37.1958 5.6172 38.2518 5.6172C39.2918 5.6172 40.2038 5.8812 40.9878 6.4092C41.7878 6.9212 42.3158 7.6252 42.5718 8.5212H42.2838V0.265198H44.7078V17.9292H42.3078V15.1932H42.5958C42.3238 16.1052 41.7958 16.8252 41.0118 17.3532C40.2278 17.8812 39.3078 18.1452 38.2518 18.1452ZM38.8518 16.2492C39.8918 16.2492 40.7318 15.8812 41.3718 15.1452C42.0118 14.4092 42.3318 13.3212 42.3318 11.8812C42.3318 10.4412 42.0118 9.3612 41.3718 8.6412C40.7318 7.9052 39.8918 7.5372 38.8518 7.5372C37.7958 7.5372 36.9478 7.9052 36.3078 8.6412C35.6838 9.3612 35.3717 10.4412 35.3717 11.8812C35.3717 13.3212 35.6838 14.4092 36.3078 15.1452C36.9478 15.8812 37.7958 16.2492 38.8518 16.2492ZM48.2448 17.9292V5.8332H50.6688V17.9292H48.2448ZM48.0527 3.3132V0.793198H50.8608V3.3132H48.0527ZM58.8533 18.1452C57.7813 18.1452 56.8453 17.8972 56.0453 17.4012C55.2453 16.9052 54.6213 16.1852 54.1733 15.2412C53.7413 14.2972 53.5253 13.1772 53.5253 11.8812C53.5253 10.5692 53.7413 9.4492 54.1733 8.5212C54.6213 7.5932 55.2453 6.8812 56.0453 6.3852C56.8453 5.8732 57.7813 5.6172 58.8533 5.6172C59.9093 5.6172 60.8293 5.8812 61.6133 6.4092C62.3973 6.9372 62.9173 7.6572 63.1733 8.5692H62.9093L63.1493 5.8332H65.5013C65.4533 6.3292 65.4053 6.8252 65.3573 7.3212C65.3253 7.8012 65.3093 8.2732 65.3093 8.7372V17.9292H62.8853V15.2412H63.1493C62.8933 16.1372 62.3653 16.8492 61.5653 17.3772C60.7813 17.8892 59.8773 18.1452 58.8533 18.1452ZM59.4533 16.2492C60.4933 16.2492 61.3253 15.8812 61.9493 15.1452C62.5893 14.4092 62.9093 13.3212 62.9093 11.8812C62.9093 10.4412 62.5893 9.3612 61.9493 8.6412C61.3253 7.9052 60.4933 7.5372 59.4533 7.5372C58.3973 7.5372 57.5493 7.9052 56.9093 8.6412C56.2853 9.3612 55.9733 10.4412 55.9733 11.8812C55.9733 13.3212 56.2853 14.4092 56.9093 15.1452C57.5333 15.8812 58.3813 16.2492 59.4533 16.2492Z" fill="#E2E2E2"/>
</svg>
