<svg width="24" height="25" viewBox="0 0 24 25" fill="none" xmlns="http://www.w3.org/2000/svg">
<g clip-path="url(#clip0_376_28442)">
<path d="M12 21.9292C16.9706 21.9292 21 17.8998 21 12.9292C21 7.95864 16.9706 3.9292 12 3.9292C7.02944 3.9292 3 7.95864 3 12.9292C3 17.8998 7.02944 21.9292 12 21.9292Z" stroke="#777777" stroke-width="2" stroke-linecap="round" stroke-linejoin="round"/>
<path d="M9 10.9292H9.01" stroke="#777777" stroke-width="2" stroke-linecap="round" stroke-linejoin="round"/>
<path d="M15 10.9292H15.01" stroke="#777777" stroke-width="2" stroke-linecap="round" stroke-linejoin="round"/>
<path d="M9.5 15.9292C9.82588 16.2618 10.2148 16.526 10.6441 16.7064C11.0734 16.8868 11.5344 16.9797 12 16.9797C12.4656 16.9797 12.9266 16.8868 13.3559 16.7064C13.7852 16.526 14.1741 16.2618 14.5 15.9292" stroke="#777777" stroke-width="2" stroke-linecap="round" stroke-linejoin="round"/>
</g>
<defs>
<clipPath id="clip0_376_28442">
<rect width="24" height="24" fill="white" transform="translate(0 0.929199)"/>
</clipPath>
</defs>
</svg>
