<svg width="24" height="24" viewBox="0 0 24 24" fill="none" xmlns="http://www.w3.org/2000/svg" stroke-width='1.2'>
<path d="M17.4444 4H6.55556C6.143 4 5.74734 4.16389 5.45561 4.45561C5.16389 4.74734 5 5.143 5 5.55556V16.4444C5 16.857 5.16389 17.2527 5.45561 17.5444C5.74734 17.8361 6.143 18 6.55556 18H17.4444C17.857 18 18.2527 17.8361 18.5444 17.5444C18.8361 17.2527 19 16.857 19 16.4444V5.55556C19 5.143 18.8361 4.74734 18.5444 4.45561C18.2527 4.16389 17.857 4 17.4444 4Z" stroke="white" stroke-linecap="round" stroke-linejoin="round"/>
<path d="M19 12.2857L14.9375 8.35714L6 17M8.84375 8.35714C9.16698 8.35714 9.47698 8.23297 9.70554 8.01195C9.9341 7.79092 10.0625 7.49115 10.0625 7.17857C10.0625 6.86599 9.9341 6.56622 9.70554 6.3452C9.47698 6.12417 9.16698 6 8.84375 6C8.52052 6 8.21052 6.12417 7.98196 6.3452C7.7534 6.56622 7.625 6.86599 7.625 7.17857C7.625 7.49115 7.7534 7.79092 7.98196 8.01195C8.21052 8.23297 8.52052 8.35714 8.84375 8.35714Z" stroke="white" stroke-linecap="round" stroke-linejoin="round"/>
<path d="M16 1L16.4323 1.14414L7.93564 21.7507L7.50329 21.6065L16 1Z" strokeWidth='1' stroke="white" />
</svg>
