<svg width="24" height="24" viewBox="0 0 24 24" fill="none" xmlns="http://www.w3.org/2000/svg" stroke-width='2'>
<path d="M3 20V14H8" stroke="#F1F1F1" stroke-linecap="round" stroke-linejoin="round"/>
<path d="M3 14.1899L7.27494 19.0566C8.26573 20.2565 9.49111 21.1327 10.8369 21.6049C12.1745 22.0758 13.6076 22.1269 14.9708 21.7522C16.3372 21.3783 17.6027 20.5902 18.6501 19.4629C19.7174 18.2992 20.5095 16.8726 20.9588 15.305M20.928 4L21 10.6973L15.4719 10.7832" stroke="#F1F1F1" stroke-linecap="round" stroke-linejoin="round"/>
<path d="M21 11L16.6652 5.98147C15.6603 4.74435 14.4235 3.84685 13.0703 3.3765C11.7241 2.90577 10.2878 2.87583 8.92717 3.29014C7.56364 3.70446 6.30421 4.54827 5.26842 5.74455C4.21199 6.97793 3.43385 8.48166 3 10.1282" stroke="#F1F1F1" stroke-linecap="round" stroke-linejoin="round"/>
</svg>



