<svg width="32" height="32" viewBox="0 0 32 32" fill="none" xmlns="http://www.w3.org/2000/svg" stroke-width='2'>
<path d="M28 14.4972C27.6331 11.8526 26.4086 9.40213 24.5149 7.5234C22.6213 5.64465 20.1636 4.44179 17.5205 4.1001C14.8774 3.75842 12.1955 4.29686 9.8878 5.6325C7.58017 6.96814 5.77487 9.02686 4.75 11.4915M4 5.48035V11.4915H10M4 17.5028C4.36684 20.1475 5.5914 22.5978 7.48504 24.4766C9.37868 26.3554 11.8364 27.5582 14.4795 27.8999C17.1226 28.2416 19.8046 27.7032 22.1122 26.3675C24.4198 25.0319 26.2251 22.9732 27.25 20.5085M28 26.5196V20.5085H22M16 11.4917V16.0001M16 20.5085H16.015" stroke="#555555" stroke-linecap="round" stroke-linejoin="round"/>
</svg>
