<svg width="24" height="24" viewBox="0 0 24 24" fill="none" xmlns="http://www.w3.org/2000/svg">
<g clip-path="url(#clip0_29_37)">
<path d="M19.9497 13C19.6969 14.9293 18.7495 16.7002 17.2851 17.9814C15.8206 19.2625 13.9394 19.966 11.9937 19.9602C10.0479 19.9544 8.17099 19.2397 6.71422 17.9498C5.25745 16.6599 4.32072 14.8833 4.07937 12.9525C3.83803 11.0218 4.30862 9.06929 5.40306 7.4605C6.49749 5.85171 8.14074 4.69694 10.0252 4.21234C11.9096 3.72775 13.9061 3.94656 15.6409 4.82781C17.3756 5.70906 18.7297 7.19235 19.4497 9M19.9497 4V9H14.9497" stroke="#777777" stroke-width="2" stroke-linecap="round" stroke-linejoin="round"/>
</g>
<defs>
<clipPath id="clip0_29_37">
<rect width="24" height="24" fill="white" transform="matrix(1 0 0 -1 0 24)"/>
</clipPath>
</defs>
</svg>
