<svg width="24" height="24" viewBox="0 0 24 24" fill="none" xmlns="http://www.w3.org/2000/svg">
<g clip-path="url(#clip0_3_260)">
<path d="M4.2 3.17647V7.88235H9" stroke="white" stroke-linecap="round" stroke-linejoin="round"/>
<path d="M6.372 19.8776H6.3696C7.73139 20.7663 9.32252 21.2578 10.958 21.2949C12.5934 21.332 14.206 20.9132 15.6083 20.0871C17.0105 19.2611 18.1448 18.0618 18.8792 16.6287C19.6137 15.1956 19.9181 13.5876 19.757 11.9915C19.596 10.3955 18.9762 8.87706 17.9696 7.61277C16.9631 6.34848 15.6111 5.39028 14.071 4.84959C12.5309 4.30889 10.8658 4.20791 9.26948 4.55838C7.67312 4.90886 6.21102 5.69639 5.0532 6.82941" stroke="white" stroke-linecap="round" stroke-linejoin="round"/>
</g>
<defs>
<clipPath id="clip0_3_260">
<rect width="18" height="20" fill="white" transform="translate(3 2)"/>
</clipPath>
</defs>
</svg>
