<svg width="24" height="24" viewBox="0 0 24 24" fill="none" xmlns="http://www.w3.org/2000/svg">
<path d="M4.98526 16.5632V17.3062C4.98526 17.869 5.20887 18.4088 5.60691 18.8069C6.00493 19.2049 6.54479 19.4286 7.1077 19.4286H17.7199C18.2828 19.4286 18.8227 19.2049 19.2208 18.8069C19.6187 18.4088 19.8424 17.869 19.8424 17.3062V6.69388C19.8424 6.13097 19.6187 5.59113 19.2208 5.19309C18.8227 4.79505 18.2828 4.57144 17.7199 4.57144H7.1077C6.54479 4.57144 6.00493 4.79506 5.60691 5.19309C5.20887 5.59113 4.98526 6.13097 4.98526 6.69388V12M4.98526 12L1.99261 9.00735M4.98526 12L7.9779 9.00735" stroke="#ABABAB"/>
</svg>
