<svg width="24" height="24" viewBox="0 0 24 24" fill="none" xmlns="http://www.w3.org/2000/svg" stroke-width='1.5'>
<g clip-path="url(#clip0_29_33)">
<path d="M4.0498 12.9999C4.30269 14.9292 5.25003 16.7002 6.71448 17.9813C8.17894 19.2625 10.0601 19.966 12.0059 19.9602C13.9516 19.9544 15.8286 19.2396 17.2853 17.9497C18.7421 16.6598 19.6788 14.8832 19.9202 12.9525C20.1615 11.0217 19.6909 9.06923 18.5965 7.46044C17.5021 5.85165 15.8588 4.69688 13.9744 4.21228C12.0899 3.72769 10.0934 3.9465 8.35868 4.82775C6.62392 5.709 5.2698 7.19229 4.5498 8.99994M4.0498 3.99994L4.0498 8.99994L9.0498 8.99994" stroke="#777777" stroke-width="2" stroke-linecap="round" stroke-linejoin="round"/>
</g>
<defs>
<clipPath id="clip0_29_33">
<rect width="24" height="24" fill="white" transform="matrix(1 0 0 -1 0 24)"/>
</clipPath>
</defs>
</svg>
