<svg width="24" height="24" viewBox="0 0 24 24" fill="none" xmlns="http://www.w3.org/2000/svg">
<path d="M14.4137 8.55509V7.79007C14.4137 7.21376 13.9301 6.75837 13.3533 6.75837H12.5104V5.03283C12.5104 4.4554 12.0278 4 11.4511 4H9.54889C8.97216 4 8.48849 4.45427 8.48849 5.0317V6.75837H7.6445C7.06886 6.75837 6.58627 7.21263 6.58627 7.79007V8.55509L5.39603 9.93597C5.14067 10.2298 5 10.6049 5 10.9925V20.9672C5 21.5446 5.48367 22 6.0604 22H14.9396C15.5163 22 16 21.5446 16 20.9672V10.9925C16 10.6049 15.8593 10.2298 15.604 9.93597L14.4137 8.55509ZM9.33897 5.03283C9.33897 4.93339 9.42554 4.83847 9.54889 4.83847H11.4511C11.5745 4.83847 11.6599 4.93339 11.6599 5.0317V6.75837H9.33897V5.03283ZM7.43675 7.79007C7.43675 7.69176 7.52223 7.59684 7.64558 7.59684H13.3544C13.4778 7.59684 13.5632 7.69176 13.5632 7.79007V8.29066H7.43675V7.79007ZM15.1484 12.6943V20.9672C15.1484 21.0655 15.063 21.1604 14.9396 21.1604H6.0604C5.93705 21.1604 5.85156 21.0655 5.85156 20.9672V10.9925C5.85282 10.8025 5.92144 10.6198 6.04417 10.4795L7.20844 9.12914H13.7926L14.9569 10.4795C15.0796 10.6198 15.1483 10.8025 15.1495 10.9925V12.6932L15.1484 12.6943Z" fill="white" stroke="white" stroke-width="0.0914286"/>
<path d="M14.3866 4.08644C14.4209 4.08635 14.455 4.08129 14.4881 4.07142L18.7166 2.81958C18.815 2.79053 18.8986 2.72026 18.9493 2.62424C18.9999 2.52822 19.0133 2.41431 18.9865 2.30757C18.9597 2.20083 18.895 2.11 18.8065 2.05507C18.7181 2.00013 18.6131 1.98559 18.5148 2.01464L14.2862 3.26648C14.1958 3.29235 14.1171 3.35315 14.0651 3.43747C14.013 3.52179 13.991 3.62384 14.0033 3.72447C14.0157 3.82511 14.0614 3.9174 14.1319 3.98404C14.2025 4.05069 14.293 4.0871 14.3866 4.08644ZM18.7166 6.18704L14.4881 4.93519C14.3924 4.91455 14.2931 4.93406 14.2101 4.98979C14.1272 5.04553 14.0668 5.13333 14.0412 5.23548C14.0156 5.33763 14.0266 5.44653 14.0721 5.54019C14.1176 5.63385 14.1941 5.7053 14.2862 5.74013L18.5148 6.99197C18.6104 7.01262 18.7098 6.9931 18.7927 6.93737C18.8756 6.88164 18.936 6.79384 18.9616 6.69168C18.9872 6.58953 18.9762 6.48064 18.9307 6.38698C18.8852 6.29331 18.8087 6.22186 18.7166 6.18704Z" fill="white"/>
</svg>
