<svg width="24" height="25" viewBox="0 0 24 25" fill="none" xmlns="http://www.w3.org/2000/svg">
<g clip-path="url(#clip0_376_29617)">
<path d="M10 14.9291C10.3259 15.2617 10.7148 15.5259 11.1441 15.7063C11.5734 15.8867 12.0344 15.9796 12.5 15.9796C12.9656 15.9796 13.4266 15.8867 13.8559 15.7063C14.2852 15.5259 14.6741 15.2617 15 14.9291L19 10.9291C19.663 10.266 20.0355 9.36677 20.0355 8.42909C20.0355 7.49141 19.663 6.59213 19 5.92909C18.337 5.26605 17.4377 4.89355 16.5 4.89355C15.5623 4.89355 14.663 5.26605 14 5.92909L13.5 6.42909" stroke="#777777" stroke-width="2" stroke-linecap="round" stroke-linejoin="round"/>
<path d="M14.0004 10.9294C13.6745 10.5968 13.2855 10.3326 12.8563 10.1522C12.427 9.97182 11.966 9.87891 11.5004 9.87891C11.0347 9.87891 10.5738 9.97182 10.1445 10.1522C9.71523 10.3326 9.32626 10.5968 9.00038 10.9294L5.00038 14.9294C4.33734 15.5925 3.96484 16.4917 3.96484 17.4294C3.96484 18.3671 4.33734 19.2664 5.00038 19.9294C5.66342 20.5925 6.5627 20.965 7.50038 20.965C8.43806 20.965 9.33734 20.5925 10.0004 19.9294L10.5004 19.4294" stroke="#777777" stroke-width="2" stroke-linecap="round" stroke-linejoin="round"/>
<path d="M16 21.9292V19.9292" stroke="#777777" stroke-width="2" stroke-linecap="round" stroke-linejoin="round"/>
<path d="M19 16.9292H21" stroke="#777777" stroke-width="2" stroke-linecap="round" stroke-linejoin="round"/>
<path d="M3 8.9292H5" stroke="#777777" stroke-width="2" stroke-linecap="round" stroke-linejoin="round"/>
<path d="M8 3.9292V5.9292" stroke="#777777" stroke-width="2" stroke-linecap="round" stroke-linejoin="round"/>
</g>
<defs>
<clipPath id="clip0_376_29617">
<rect width="24" height="24" fill="white" transform="translate(0 0.929199)"/>
</clipPath>
</defs>
</svg>
