<svg width="24" height="24" viewBox="0 0 24 24" fill="none" xmlns="http://www.w3.org/2000/svg" stroke-width='2'>
<path d="M3 12V19.2C3 19.4364 3.0582 19.6704 3.17127 19.8888C3.28434 20.1072 3.45008 20.3056 3.65901 20.4728C3.86794 20.6399 4.11598 20.7725 4.38896 20.863C4.66194 20.9534 4.95453 21 5.25 21H18.75C19.0455 21 19.3381 20.9534 19.611 20.863C19.884 20.7725 20.1321 20.6399 20.341 20.4728C20.5499 20.3056 20.7157 20.1072 20.8287 19.8888C20.9418 19.6704 21 19.4364 21 19.2V12M16.5 6.6L12 3M12 3L7.5 6.6M12 3V14.7" stroke="#555555" stroke-linecap="round" stroke-linejoin="round"/>
</svg>
