<svg width="24" height="24" viewBox="0 0 24 24" fill="none" xmlns="http://www.w3.org/2000/svg">
<path d="M3 6C3 5.20435 3.31606 4.44129 3.87868 3.87868C4.44129 3.31606 5.20435 3 6 3H8.25C8.44891 3 8.63968 3.07902 8.78032 3.21968C8.92098 3.36032 9 3.55109 9 3.75C9 3.94891 8.92098 4.13968 8.78032 4.28032C8.63968 4.42098 8.44891 4.5 8.25 4.5H6C5.60217 4.5 5.22065 4.65804 4.93934 4.93934C4.65804 5.22065 4.5 5.60217 4.5 6V8.25C4.5 8.44891 4.42098 8.63968 4.28032 8.78032C4.13968 8.92098 3.94891 9 3.75 9C3.55109 9 3.36032 8.92098 3.21968 8.78032C3.07902 8.63968 3 8.44891 3 8.25V6ZM3 18C3 18.7956 3.31606 19.5586 3.87868 20.1213C4.44129 20.6839 5.20435 21 6 21H8.25C8.44891 21 8.63968 20.9209 8.78032 20.7804C8.92098 20.6397 9 20.4489 9 20.25C9 20.0511 8.92098 19.8603 8.78032 19.7196C8.63968 19.5791 8.44891 19.5 8.25 19.5H6C5.60217 19.5 5.22065 19.3419 4.93934 19.0606C4.65804 18.7794 4.5 18.3978 4.5 18V15.75C4.5 15.5511 4.42098 15.3603 4.28032 15.2196C4.13968 15.0791 3.94891 15 3.75 15C3.55109 15 3.36032 15.0791 3.21968 15.2196C3.07902 15.3603 3 15.5511 3 15.75V18ZM18 3C18.7956 3 19.5586 3.31606 20.1213 3.87868C20.6839 4.44129 21 5.20435 21 6V8.25C21 8.44891 20.9209 8.63968 20.7804 8.78032C20.6397 8.92098 20.4489 9 20.25 9C20.0511 9 19.8603 8.92098 19.7196 8.78032C19.5791 8.63968 19.5 8.44891 19.5 8.25V6C19.5 5.60217 19.3419 5.22065 19.0606 4.93934C18.7794 4.65804 18.3978 4.5 18 4.5H15.75C15.5511 4.5 15.3603 4.42098 15.2196 4.28032C15.0791 4.13968 15 3.94891 15 3.75C15 3.55109 15.0791 3.36032 15.2196 3.21968C15.3603 3.07902 15.5511 3 15.75 3H18ZM21 18C21 18.7956 20.6839 19.5586 20.1213 20.1213C19.5586 20.6839 18.7956 21 18 21H15.75C15.5511 21 15.3603 20.9209 15.2196 20.7804C15.0791 20.6397 15 20.4489 15 20.25C15 20.0511 15.0791 19.8603 15.2196 19.7196C15.3603 19.5791 15.5511 19.5 15.75 19.5H18C18.3978 19.5 18.7794 19.3419 19.0606 19.0606C19.3419 18.7794 19.5 18.3978 19.5 18V15.75C19.5 15.5511 19.5791 15.3603 19.7196 15.2196C19.8603 15.0791 20.0511 15 20.25 15C20.4489 15 20.6397 15.0791 20.7804 15.2196C20.9209 15.3603 21 15.5511 21 15.75V18ZM8.25 13.5C8.25 12.5054 8.64509 11.5516 9.34835 10.8483C10.0516 10.1451 11.0054 9.75 12 9.75C12.9946 9.75 13.9484 10.1451 14.6517 10.8483C15.3549 11.5516 15.75 12.5054 15.75 13.5C15.75 14.4946 15.3549 15.4484 14.6517 16.1517C13.9484 16.8549 12.9946 17.25 12 17.25C11.0054 17.25 10.0516 16.8549 9.34835 16.1517C8.64509 15.4484 8.25 14.4946 8.25 13.5ZM4.971 11.946C5.15559 12.02 5.362 12.0176 5.54484 11.9394C5.72767 11.8612 5.87197 11.7136 5.946 11.529L5.9535 11.514L5.9955 11.424C6.036 11.3415 6.1035 11.2185 6.1995 11.064C6.46767 10.645 6.79051 10.2636 7.1595 9.93C8.064 9.1095 9.576 8.25 12 8.25C14.4255 8.25 15.936 9.1095 16.839 9.93C17.2965 10.3455 17.607 10.7595 17.799 11.0655C17.8907 11.2097 17.9733 11.3595 18.0465 11.514C18.0465 11.514 18.4125 12.192 19.029 11.946C19.2135 11.872 19.3611 11.7277 19.4394 11.5448C19.5176 11.362 19.5199 11.1556 19.446 10.971V10.968L19.443 10.962L19.4355 10.947C19.408 10.8813 19.3781 10.8168 19.3455 10.7535C19.2608 10.5855 19.1676 10.4218 19.0665 10.263C18.7266 9.72991 18.317 9.24462 17.8485 8.82C16.6875 7.7655 14.823 6.75 11.9985 6.75C9.1755 6.75 7.311 7.7655 6.1515 8.82C5.68249 9.24449 5.27235 9.72978 4.932 10.263C4.79339 10.4822 4.6701 10.7108 4.563 10.947L4.557 10.962L4.554 10.9695C4.48005 11.1541 4.48244 11.362 4.56063 11.5448C4.63883 11.7277 4.78644 11.872 4.971 11.946Z" fill="#E2E2E2"/>
</svg>
