<svg
  xmlns="http://www.w3.org/2000/svg"
  width="21"
  height="20"
  fill="none"
  viewBox="0 0 21 20"
>
  <g
    stroke-linecap="round"
    stroke-linejoin="round"
    clip-path="url(#a)"
  >
    <path d="M12.167 6.666a1.667 1.667 0 1 0 0-3.333 1.667 1.667 0 0 0 0 3.333" />
    <path d="M3.834 5h6.667" />
    <path d="M13.834 5h3.333" />
    <path d="M7.167 11.666a1.667 1.667 0 1 0 0-3.333 1.667 1.667 0 0 0 0 3.333" />
    <path d="M3.834 10h1.667" />
    <path d="M8.834 10h8.333" />
    <path d="M14.667 16.666a1.667 1.667 0 1 0 0-3.333 1.667 1.667 0 0 0 0 3.333" />
    <path d="M3.834 15h9.167" />
    <path d="M16.334 15h.833" />
  </g>
  <defs>
    <clipPath id="a">
      <rect width="20" height="20" fill="#fff" transform="translate(.5)" />
    </clipPath>
  </defs>
</svg>
