<svg
  xmlns="http://www.w3.org/2000/svg"
  width="36"
  height="36"
  fill="none"
  viewBox="0 0 36 36"
>
  <g clip-path="url(#a)">
    <path
      fill="#777"
      fill-rule="evenodd"
      d="M4.814 2.643a1.5 1.5 0 0 1 1.5-1.5h15.827a1.5 1.5 0 0 1 1.06.44l4.034 4.032a1.5 1.5 0 0 1 .439 1.061v14.639a.97.97 0 0 1-.972.971h-2.06a6.686 6.686 0 0 0-6.686 6.686c0 .41-.332.742-.743.742H6.314a1.5 1.5 0 0 1-1.5-1.5zm5.663 18.068q1.283.642 3.103.641 1.51 0 2.687-.485 1.197-.485 1.873-1.491.693-1.005.693-2.549h-1.907q0 .954-.416 1.595a2.5 2.5 0 0 1-1.144.971q-.745.312-1.751.312-1.23 0-2.063-.45-.832-.468-1.266-1.422-.416-.954-.416-2.427v-.382q0-1.473.416-2.427.434-.953 1.266-1.421.85-.486 2.063-.486.97 0 1.699.33.745.33 1.144.97.399.642.399 1.595h1.976q0-1.543-.693-2.53-.676-1.006-1.873-1.509-1.178-.503-2.67-.503-2.705 0-4.23 1.526-1.508 1.508-1.508 4.629 0 2.115.676 3.485.675 1.37 1.942 2.028m9.616-.657v.99h4.36v-.99h-1.506v-5.806h-.595a7 7 0 0 1-.753.357 9 9 0 0 1-.822.287 4.3 4.3 0 0 1-.694.139v.743h1.645v4.28zm.782-17.222 4.912 4.912h-4.912z"
      clip-rule="evenodd"
    />
    <g clip-path="url(#b)">
      <path d="M21.027 32.5v1a1 1 0 0 0 1 1h6a1 1 0 0 0 1-1v-1" />
      <path d="m22.527 28.5 2.5-2.5 2.5 2.5" />
      <path d="M25.025 26v6" />
    </g>
  </g>
  <defs>
    <clipPath id="a">
      <rect
        width="34.286"
        height="36"
        fill="#fff"
        transform="translate(.813)"
      />
    </clipPath>
    <clipPath id="b">
      <rect
        width="12"
        height="12"
        fill="#fff"
        transform="translate(19.025 24)"
      />
    </clipPath>
  </defs>
</svg>
