<svg
  xmlns="http://www.w3.org/2000/svg"
  width="20"
  height="20"
  fill="none"
  viewBox="0 0 20 20"
>
  <g clip-path="url(#a)">
    <path d="M15 6.667H8.333c-.92 0-1.666.746-1.666 1.666V15c0 .92.746 1.667 1.666 1.667H15c.92 0 1.666-.747 1.666-1.667V8.333c0-.92-.746-1.666-1.666-1.666" />
    <path d="M13.334 6.667V5a1.667 1.667 0 0 0-1.667-1.667H5A1.667 1.667 0 0 0 3.334 5v6.667A1.667 1.667 0 0 0 5 13.333h1.667" />
  </g>
  <defs>
    <clipPath id="a">
      <rect width="20" height="20" fill="#fff" />
    </clipPath>
  </defs>
</svg>
