<svg
  xmlns="http://www.w3.org/2000/svg"
  width="32"
  height="32"
  fill="none"
  viewBox="0 0 32 32"
>
  <rect width="32" height="32" fill="#6392D5" fill-opacity=".2" rx="6" />
  <g clip-path="url(#a)">
    <path d="M21 12.667h-6.667c-.92 0-1.667.746-1.667 1.666V21c0 .92.747 1.667 1.667 1.667H21c.92 0 1.666-.747 1.666-1.667v-6.667c0-.92-.746-1.666-1.666-1.666" />
    <path d="M19.333 12.667V11a1.667 1.667 0 0 0-1.667-1.667H11A1.667 1.667 0 0 0 9.333 11v6.667A1.667 1.667 0 0 0 11 19.333h1.666" />
  </g>
  <defs>
    <clipPath id="a">
      <rect width="20" height="20" fill="#fff" transform="translate(6 6)" />
    </clipPath>
  </defs>
</svg>
