<svg
  xmlns="http://www.w3.org/2000/svg"
  width="28"
  height="28"
  fill="none"
  viewBox="0 0 28 28"
>
  <g clip-path="url(#a)">
    <path d="M25.667 7.083v14a3.5 3.5 0 0 1-3.5 3.5h-14" />
    <path d="M16.333 7.083h.012" />
    <path d="M18.667 2.416H7a3.5 3.5 0 0 0-3.5 3.5v11.667a3.5 3.5 0 0 0 3.5 3.5h11.667a3.5 3.5 0 0 0 3.5-3.5V5.916a3.5 3.5 0 0 0-3.5-3.5" />
    <path d="m3.5 15.249 4.667-4.667c.532-.512 1.135-.781 1.75-.781.614 0 1.218.27 1.75.781l5.833 5.834" />
    <path d="m15.167 14.083 1.166-1.167c.532-.512 1.136-.781 1.75-.781s1.218.27 1.75.781l2.334 2.334" />
  </g>
  <defs>
    <clipPath id="a">
      <rect width="28" height="28" fill="#fff" />
    </clipPath>
  </defs>
</svg>
