<svg
  xmlns="http://www.w3.org/2000/svg"
  width="50"
  height="38"
  fill="none"
  viewBox="0 0 50 38"
>
  <path
    fill="#ABABAB"
    fill-rule="evenodd"
    d="M44.978 6.13a4.247 4.247 0 0 1 4.242 4.243 4.24 4.24 0 0 1-2.44 3.835l-.018.124c-1.783 11.95-2.448 14.115-5.888 16.74H9.082c-3.44-2.625-4.105-4.79-5.887-16.74l-.018-.124a4.24 4.24 0 0 1-2.44-3.835 4.247 4.247 0 0 1 4.242-4.242 4.247 4.247 0 0 1 4.242 4.242c0 .387-.056.76-.155 1.117.753.612 1.518 1.311 2.262 1.995 1.242 1.143 3.103 2.855 3.892 2.945 1.097-.433 4.526-4.876 6.833-9.053a4.23 4.23 0 0 1-1.317-3.064A4.247 4.247 0 0 1 24.978.07a4.247 4.247 0 0 1 4.243 4.243 4.23 4.23 0 0 1-1.318 3.065c2.307 4.176 5.736 8.62 6.833 9.053.789-.09 2.65-1.802 3.892-2.945.744-.685 1.51-1.384 2.262-1.996a4.2 4.2 0 0 1-.154-1.117 4.247 4.247 0 0 1 4.242-4.242m1.45 3.148-.355-.355q.202.153.356.355"
    clip-rule="evenodd"
  />
  <path
    fill="#ABABAB"
    d="M8.736 35.422a1.6 1.6 0 0 1 1.6-1.6h28.8a1.6 1.6 0 0 1 1.6 1.6v2.514h-32z"
  />
</svg>
