<svg xmlns="http://www.w3.org/2000/svg" fill="none" viewBox="0 0 24 24">
  <g stroke-linecap="round" stroke-linejoin="round" clip-path="url(#a)">
    <path d="M14 8a2 2 0 1 0 0-4 2 2 0 0 0 0 4" />
    <path d="M4 6h8" />
    <path d="M16 6h4" />
    <path d="M8 14a2 2 0 1 0 0-4 2 2 0 0 0 0 4" />
    <path d="M4 12h2" />
    <path d="M10 12h10" />
    <path d="M17 20a2 2 0 1 0 0-4 2 2 0 0 0 0 4" />
    <path d="M4 18h11" />
    <path d="M19 18h1" />
  </g>
  <defs>
    <clipPath id="a">
      <rect width="24" height="24" fill="#fff" />
    </clipPath>
  </defs>
</svg>
