<svg xmlns="http://www.w3.org/2000/svg" fill="none" viewBox="0 0 24 24">
  <g stroke-linecap="round" stroke-linejoin="round" clip-path="url(#a)">
    <path d="M6 12a2 2 0 1 0 0-4 2 2 0 0 0 0 4" />
    <path d="M6 4v4" />
    <path d="M6 12v8" />
    <path d="M12 18a2 2 0 1 0 0-4 2 2 0 0 0 0 4" />
    <path d="M12 4v10" />
    <path d="M12 18v2" />
    <path d="M18 9a2 2 0 1 0 0-4 2 2 0 0 0 0 4" />
    <path d="M18 4v1" />
    <path d="M18 9v11" />
  </g>
  <defs>
    <clipPath id="a">
      <rect width="24" height="24" fill="#fff" />
    </clipPath>
  </defs>
</svg>
