<svg
  xmlns="http://www.w3.org/2000/svg"
  width="24"
  height="24"
  fill="none"
  viewBox="0 0 24 24"
>
  <g stroke-linecap="round" stroke-linejoin="round" clip-path="url(#a)">
    <path d="M8.7 3h6.6c.3 0 .5.1.7.3L20.7 8c.2.2.3.4.3.7v6.6c0 .3-.1.5-.3.7L16 20.7c-.2.2-.4.3-.7.3H8.7c-.3 0-.5-.1-.7-.3L3.3 16c-.2-.2-.3-.4-.3-.7V8.7c0-.3.1-.5.3-.7L8 3.3c.2-.2.4-.3.7-.3" />
    <path d="M12 8v4" />
    <path d="M12 16h.01" />
  </g>
  <defs>
    <clipPath id="a">
      <rect width="24" height="24" fill="#fff" />
    </clipPath>
  </defs>
</svg>
