<svg xmlns="http://www.w3.org/2000/svg" fill="none" viewBox="0 0 24 24">
  <g stroke-linecap="round" stroke-linejoin="round" clip-path="url(#a)">
    <path d="M12 12v.01" />
    <path d="M19.07 4.929c-.75-.75-2.214-.725-4.07.071S11.047 7.296 9.17 9.172 5.795 13.144 5 15s-.822 3.321-.072 4.071 2.215.725 4.072-.07c1.856-.797 3.953-2.297 5.828-4.173a23.6 23.6 0 0 0 2.49-2.92c.716-1 1.288-1.989 1.681-2.908.395-.92.604-1.752.616-2.45s-.173-1.25-.544-1.621" />
    <path d="M4.929 4.929C4.179 5.679 4.204 7.143 5 9s2.296 3.953 4.172 5.828S13.143 18.204 15 19s3.32.821 4.071.071S19.796 16.856 19 15c-.796-1.857-2.296-3.953-4.172-5.828a23.6 23.6 0 0 0-2.92-2.491C10.907 5.965 9.918 5.394 9 5c-.92-.394-1.752-.603-2.45-.615s-1.25.172-1.621.544" />
  </g>
  <defs>
    <clipPath id="a">
      <rect width="24" height="24" fill="#fff" />
    </clipPath>
  </defs>
</svg>
