<svg
  width="24"
  height="24"
  viewBox="0 0 24 24"
  fill="none"
  xmlns="http://www.w3.org/2000/svg"
>
  <path
    d="M20.2096 3.7903C19.3387 2.91936 17.6385 2.94908 15.483 3.87285C13.3276 4.79662 10.8934 6.5388 8.71604 8.71613C6.53871 10.8935 4.79653 13.3276 3.87276 15.4831C2.94899 17.6386 2.91932 19.3388 3.79027 20.2097C4.66121 21.0807 6.36142 21.0509 8.51686 20.1272C10.6723 19.2034 13.1065 17.4612 15.2838 15.2839C16.3619 14.2058 17.3446 13.0533 18.1756 11.8922C19.0066 10.7311 19.6697 9.58423 20.1271 8.51695C20.5845 7.44962 20.8272 6.48289 20.8414 5.67192C20.8556 4.86094 20.6409 4.22156 20.2096 3.7903Z"
    stroke="currentColor"
    stroke-width="2"
    stroke-linecap="round"
    stroke-linejoin="round"
  />
  <path
    d="M3.79024 3.79033C2.91929 4.66127 2.94902 6.36148 3.87279 8.51692C4.79656 10.6724 6.53874 13.1065 8.71607 15.2839C10.8934 17.4612 13.3275 19.2034 15.483 20.1272C17.6385 21.0509 19.3387 21.0806 20.2096 20.2097C21.0806 19.3388 21.0509 17.6385 20.1271 15.4831C19.2033 13.3276 17.4611 10.8935 15.2838 8.71615C14.2057 7.63802 13.0532 6.65539 11.8921 5.82439C10.7311 4.99338 9.58417 4.33026 8.51689 3.87282C7.44956 3.41543 6.48283 3.17272 5.67186 3.15856C4.86088 3.14439 4.2215 3.35906 3.79024 3.79033Z"
    stroke="currentColor"
    stroke-width="2"
    stroke-linecap="round"
    stroke-linejoin="round"
  />
  <path
    d="M12 13C12.5523 13 13 12.5523 13 12C13 11.4477 12.5523 11 12 11C11.4477 11 11 11.4477 11 12C11 12.5523 11.4477 13 12 13Z"
    fill="#2279CE"
  />
</svg>
