<svg
  xmlns="http://www.w3.org/2000/svg"
  width="24"
  height="25"
  fill="none"
  viewBox="0 0 24 25"
>
  <g clip-path="url(#a)">
    <path
      stroke-linecap="round"
      stroke-linejoin="round"
      d="M22 4.94c-1 .49-1.98.688-3 .99-1.121-1.266-2.783-1.336-4.38-.738S11.977 7.252 12 8.93v1c-3.245.083-6.135-1.395-8-4 0 0-4.182 7.433 4 11-1.872 1.247-3.739 2.088-6 2 3.308 1.803 6.913 2.423 10.034 1.517 3.58-1.04 6.522-3.723 7.651-7.742a13.8 13.8 0 0 0 .497-3.753C20.18 8.702 21.692 6.18 22 4.938z"
    />
  </g>
  <defs>
    <clipPath id="a">
      <rect width="24" height="24" fill="#fff" transform="translate(0 .93)" />
    </clipPath>
  </defs>
</svg>
