<svg xmlns="http://www.w3.org/2000/svg" fill="none" viewBox="0 0 24 25">
  <g stroke-linecap="round" stroke-linejoin="round" clip-path="url(#a)">
    <path d="M19.821 20.753c-.25.113-.528.176-.821.176H5a2 2 0 0 1-2-2v-9a2 2 0 0 1 2-2h1c.292 0 .568-.062.818-.175M8.29 5.225A1 1 0 0 1 9 4.93h6a1 1 0 0 1 1 1 2 2 0 0 0 2 2h1a2 2 0 0 1 2 2v8z" />
    <path d="M10.436 11.37a3 3 0 1 0 4.126 4.121" />
    <path d="m3 3.93 18 18" />
  </g>
  <defs>
    <clipPath id="a">
      <rect width="24" height="24" fill="#fff" transform="translate(0 .93)" />
    </clipPath>
  </defs>
</svg>
