<svg xmlns="http://www.w3.org/2000/svg" fill="none" viewBox="0 0 24 25">
  <g stroke-linecap="round" stroke-linejoin="round" clip-path="url(#a)">
    <path d="M4 8.93v-2a2 2 0 0 1 2-2h2" />
    <path d="M4 16.93v2a2 2 0 0 0 2 2h2" />
    <path d="M16 4.93h2a2 2 0 0 1 2 2v2" />
    <path d="M16 20.93h2a2 2 0 0 0 2-2v-2" />
    <path d="M12 15.93a3 3 0 1 0 0-6 3 3 0 0 0 0 6" />
  </g>
  <defs>
    <clipPath id="a">
      <rect width="24" height="24" fill="#fff" transform="translate(0 .93)" />
    </clipPath>
  </defs>
</svg>
