<svg
  width="48"
  height="48"
  viewBox="0 0 48 48"
  fill="none"
  xmlns="http://www.w3.org/2000/svg"
>
  <path
    d="M37.8527 35C39.4043 34.1364 40.6302 32.7695 41.3367 31.1153C42.0432 29.461 42.1901 27.6136 41.7543 25.8645C41.3185 24.1155 40.3248 22.5645 38.9299 21.4564C37.5351 20.3483 35.8187 19.7462 34.0516 19.7452H32.0465C31.5652 17.8429 30.6678 16.0769 29.422 14.5798C28.1762 13.0828 26.6142 11.8937 24.8536 11.1019C23.0929 10.3102 21.1795 9.93648 19.2571 10.0088C17.3346 10.0811 15.4533 10.5977 13.7545 11.5196C12.0557 12.4415 10.5836 13.7447 9.44902 15.3314C8.31441 16.918 7.54678 18.7467 7.20384 20.6799C6.8609 22.6132 6.95158 24.6007 7.46907 26.493C7.98655 28.3853 8.91737 30.1332 10.1915 31.6052"
    stroke="currentColor"
    stroke-width="3"
    stroke-linecap="round"
    stroke-linejoin="round"
  />
  <path
    d="M24.5 24V38M24.5 24L31 30.2219M24.5 24L18 30.2219"
    stroke="#1DA0BC"
    stroke-width="3"
    stroke-linecap="round"
    stroke-linejoin="round"
  />
</svg>
