<svg xmlns="http://www.w3.org/2000/svg" fill="none" viewBox="0 0 24 25">
  <g stroke-linecap="round" stroke-linejoin="round" clip-path="url(#a)">
    <path d="M7 18.93a4.82 4.82 0 0 1-3.326-1.319 4.4 4.4 0 0 1-1.378-3.182c0-1.193.496-2.338 1.378-3.182A4.82 4.82 0 0 1 7 9.93c.295-1.312 1.157-2.466 2.397-3.207a6 6 0 0 1 2.025-.748 6.2 6.2 0 0 1 2.19.005c.722.132 1.408.39 2.02.76a5.4 5.4 0 0 1 1.543 1.397c.408.553.69 1.172.832 1.823.142.65.14 1.32-.007 1.97h1a3.5 3.5 0 1 1 0 7h-1" />
    <path d="m9 15.93 3-3 3 3" />
    <path d="M12 12.93v9" />
  </g>
  <defs>
    <clipPath id="a">
      <rect width="24" height="24" fill="#fff" transform="translate(0 .93)" />
    </clipPath>
  </defs>
</svg>
