<svg xmlns="http://www.w3.org/2000/svg" fill="none" viewBox="0 0 25 24">
  <g clip-path="url(#a)">
    <path
      fill="currentColor"
      fill-rule="evenodd"
      d="M8.266 8h12.469c.6 0 1.177.246 1.601.683.425.438.664 1.03.664 1.65v7.335c0 .618-.239 1.212-.664 1.649a2.23 2.23 0 0 1-1.601.683H8.265c-.6 0-1.177-.246-1.601-.683A2.37 2.37 0 0 1 6 17.667v-7.335c0-.618.238-1.211.663-1.649A2.23 2.23 0 0 1 8.266 8"
      clip-rule="evenodd"
    />
    <path
      stroke="currentColor"
      d="M3.5 7.88c0-1.322 1.052-2.38 2.333-2.38h11.334c1.28 0 2.333 1.058 2.333 2.38v6.24c0 1.322-1.052 2.38-2.333 2.38H5.833c-1.28 0-2.333-1.058-2.333-2.38z"
    />
  </g>
  <defs>
    <clipPath id="a">
      <rect
        width="24"
        height="24"
        fill="currentColor"
        transform="translate(.571)"
      />
    </clipPath>
  </defs>
</svg>
