<svg
  xmlns="http://www.w3.org/2000/svg"
  width="24"
  height="25"
  fill="none"
  viewBox="0 0 24 25"
>
  <g stroke-linecap="round" stroke-linejoin="round" clip-path="url(#a)">
    <path d="m9 15.93 6-6" />
    <path fill="#D0D5DD" d="M9.5 10.93a.5.5 0 1 0 0-1 .5.5 0 0 0 0 1" />
    <path fill="#D0D5DD" d="M14.5 15.93a.5.5 0 1 0 0-1 .5.5 0 0 0 0 1" />
    <path d="M5 8.13a2.2 2.2 0 0 1 2.2-2.2h1a2.2 2.2 0 0 0 1.55-.64l.7-.7a2.2 2.2 0 0 1 3.12 0l.7.7c.412.409.97.639 1.55.64h1a2.2 2.2 0 0 1 2.2 2.2v1c0 .58.23 1.137.64 1.55l.7.7a2.2 2.2 0 0 1 0 3.12l-.7.7a2.2 2.2 0 0 0-.64 1.55v1a2.2 2.2 0 0 1-2.2 2.2h-1a2.2 2.2 0 0 0-1.55.64l-.7.7a2.2 2.2 0 0 1-3.12 0l-.7-.7a2.2 2.2 0 0 0-1.55-.64h-1a2.2 2.2 0 0 1-2.2-2.2v-1a2.2 2.2 0 0 0-.64-1.55l-.7-.7a2.2 2.2 0 0 1 0-3.12l.7-.7A2.2 2.2 0 0 0 5 9.13z" />
  </g>
  <defs>
    <clipPath id="a">
      <rect width="24" height="24" fill="#fff" transform="translate(0 .93)" />
    </clipPath>
  </defs>
</svg>
