<svg
  xmlns="http://www.w3.org/2000/svg"
  width="24"
  height="25"
  fill="none"
  viewBox="0 0 24 25"
>
  <g stroke-linecap="round" stroke-linejoin="round" clip-path="url(#a)">
    <path d="M17 21.93a4 4 0 1 0 0-8 4 4 0 0 0 0 8" />
    <path d="M17 13.93v4h4" />
    <path d="M12 3.93v4a1 1 0 0 0 1 1h4" />
    <path d="M17 13.93v4m-5.5 4H5a2 2 0 0 1-2-2v-14a2 2 0 0 1 2-2h7l5 5v2z" />
  </g>
  <defs>
    <clipPath id="a">
      <rect width="24" height="24" fill="#fff" transform="translate(0 .93)" />
    </clipPath>
  </defs>
</svg>
