<svg
  width="24"
  height="24"
  viewBox="0 0 24 24"
  fill="none"
  xmlns="http://www.w3.org/2000/svg"
>
  <g clip-path="url(#clip0_22_454)">
    <mask
      id="mask0_22_454"
      maskUnits="userSpaceOnUse"
      x="0"
      y="0"
      width="24"
      height="24"
    >
      <path d="M24 0H0V24H24V0Z" fill="white" />
    </mask>
    <g mask="url(#mask0_22_454)">
      <path
        d="M4.99999 3.99998H9L12 6.99998H19.0001C19.5305 6.99998 20.0391 7.21069 20.4142 7.58576C20.7892 7.96084 21 8.46955 21 8.99998V16.9999C21 17.5303 20.7892 18.0391 20.4142 18.4141C20.0391 18.7893 19.5305 19 19.0001 19H4.99999C4.46956 19 3.96086 18.7893 3.58578 18.4141C3.21072 18.0391 3 17.5303 3 16.9999V5.99998C3 5.46955 3.21072 4.96084 3.58578 4.58576C3.96086 4.21069 4.46956 3.99998 4.99999 3.99998Z"
        fill="currentColor"
      />
      <path
        d="M4.99999 3.99998H9L12 6.99998H19.0001C19.5305 6.99998 20.0391 7.21069 20.4142 7.58576C20.7892 7.96084 21 8.46955 21 8.99998V16.9999C21 17.5303 20.7892 18.0391 20.4142 18.4141C20.0391 18.7893 19.5305 19 19.0001 19H4.99999C4.46956 19 3.96086 18.7893 3.58578 18.4141C3.21072 18.0391 3 17.5303 3 16.9999V5.99998C3 5.46955 3.21072 4.96084 3.58578 4.58576C3.96086 4.21069 4.46956 3.99998 4.99999 3.99998Z"
        stroke="currentColor"
        stroke-linecap="round"
        stroke-linejoin="round"
      />
    </g>
  </g>
  <defs>
    <clipPath id="clip0_22_454">
      <rect width="24" height="24" fill="white" />
    </clipPath>
  </defs>
</svg>
