<svg
  width="24"
  height="24"
  viewBox="0 0 24 24"
  fill="none"
  xmlns="http://www.w3.org/2000/svg"
>
  <g clip-path="url(#clip0_3_260)">
    <path
      d="M6.3155 10.276C6.73334 9.07547 7.53891 8.03141 8.6171 7.29301C9.69679 6.55359 10.9938 6.15713 12.3236 6.16001C13.8304 6.16001 15.1933 6.66901 16.2643 7.50101L19.3786 4.54301C17.4823 2.97001 15.0494 2.00001 12.3236 2.00001C10.3308 1.99281 8.37559 2.51685 6.67921 3.51287C4.98283 4.50888 3.61294 5.93711 2.7245 7.63601L6.3155 10.276Z"
      fill="#EA4335"
    />
    <path
      d="M15.9818 16.91C15.0053 17.507 13.7663 17.826 12.3635 17.826C11.0342 17.8287 9.73744 17.4342 8.65595 16.698C7.57591 15.963 6.76624 14.9228 6.34175 13.725L2.7245 16.333C3.61353 18.0401 4.98752 19.4755 6.69035 20.476C8.39514 21.478 10.3602 22.0059 12.3635 22C14.9896 22 17.4991 21.113 19.3796 19.45L15.9818 16.91Z"
      fill="#34A853"
    />
    <path
      d="M19.0709 19.93C21.0134 18.162 22.2755 15.53 22.2755 12.16C22.2755 11.546 22.1789 10.888 22.034 10.275H12.1367V14.279H17.833C17.5526 15.625 16.7977 16.668 15.7141 17.351L19.0709 19.93Z"
      fill="#4A90E2"
    />
    <path
      d="M6.34492 13.91C6.14293 13.294 6.04061 12.6523 6.04147 12.007C6.04147 11.35 6.14437 10.72 6.33547 10.131L3.02062 7.518C2.33986 8.92526 1.99147 10.4576 2.00002 12.007C2.00002 13.617 2.36647 15.137 3.01852 16.483L6.34492 13.91Z"
      fill="#FBBC05"
    />
  </g>
  <defs>
    <clipPath id="clip0_3_260">
      <rect width="21" height="20" fill="white" transform="translate(2 2)" />
    </clipPath>
  </defs>
</svg>
