<svg xmlns="http://www.w3.org/2000/svg" fill="currentColor" viewBox="0 0 24 24">
  <path
    fill="currentColor"
    d="M9.734 2H3.266C2.566 2 2 2.567 2 3.266v6.468c0 .7.567 1.266 1.266 1.266h6.468c.7 0 1.266-.567 1.266-1.266V3.266C11 2.566 10.433 2 9.734 2"
  />
  <path
    fill="currentColor"
    d="M9.734 13H3.266C2.566 13 2 13.567 2 14.266v6.468c0 .7.567 1.266 1.266 1.266h6.468c.7 0 1.266-.567 1.266-1.266v-6.468c0-.7-.567-1.266-1.266-1.266"
  />
  <path
    fill="currentColor"
    d="M20.734 2h-6.468C13.566 2 13 2.567 13 3.266v6.468c0 .7.567 1.266 1.266 1.266h6.468c.7 0 1.266-.567 1.266-1.266V3.266C22 2.566 21.433 2 20.734 2"
  />
  <path
    fill="currentColor"
    fill-opacity=".7"
    d="M20.734 13h-6.468c-.7 0-1.266.567-1.266 1.266v6.468c0 .7.567 1.266 1.266 1.266h6.468c.7 0 1.266-.567 1.266-1.266v-6.468c0-.7-.567-1.266-1.266-1.266"
  />
</svg>
