<svg xmlns="http://www.w3.org/2000/svg" fill="none" viewBox="0 0 24 24">
  <path stroke-linecap="round" stroke-linejoin="round" d="M3 20.25h18" />
  <path
    stroke-linecap="round"
    stroke-linejoin="round"
    d="M3 7.417v.916c0 .73.316 1.43.879 1.945A3.14 3.14 0 0 0 6 11.083c.796 0 1.559-.29 2.121-.805A2.64 2.64 0 0 0 9 8.333m-6-.916h6v.916m-6-.916h18m-18 0L5 3.75h14l2 3.667M9 8.333c0 .73.316 1.43.879 1.945a3.14 3.14 0 0 0 2.121.805c.796 0 1.559-.29 2.121-.805A2.64 2.64 0 0 0 15 8.333m6-.916v.916a2.64 2.64 0 0 1-.879 1.945 3.14 3.14 0 0 1-2.121.805c-.796 0-1.559-.29-2.121-.805A2.64 2.64 0 0 1 15 8.333m0 0v-.916"
  />
  <path stroke-linecap="round" stroke-linejoin="round" d="M5 20.25v-9.304" />
  <path stroke-linecap="round" stroke-linejoin="round" d="M19 20.25v-9.304" />
  <path
    stroke-linecap="round"
    stroke-linejoin="round"
    d="M9 20.25v-3.667c0-.486.21-.952.586-1.296A2.1 2.1 0 0 1 11 14.75h2c.53 0 1.04.193 1.414.537.375.344.586.81.586 1.296v3.667"
  />
</svg>
