<svg
  width="24"
  height="24"
  viewBox="0 0 24 24"
  fill="none"
  xmlns="http://www.w3.org/2000/svg"
>
  <mask
    id="mask0_2_16"
    maskUnits="userSpaceOnUse"
    x="0"
    y="0"
    width="24"
    height="24"
  >
    <path d="M24 0H0V24H24V0Z" fill="white" />
  </mask>
  <g mask="url(#mask0_2_16)">
    <path
      d="M19.0713 2.88H4.92857C3.62676 2.88 2.57143 3.90079 2.57143 5.16V18.8401C2.57143 20.0993 3.62676 21.12 4.92857 21.12H19.0713C20.3732 21.12 21.4286 20.0993 21.4286 18.8401V5.16C21.4286 3.90079 20.3732 2.88 19.0713 2.88Z"
      stroke="currentColor"
      stroke-linejoin="round"
    />
    <path
      d="M15.5345 21.12V2.88H19.0703C20.8381 2.88 21.4273 4.01999 21.4273 5.16V18.8401C21.4273 19.9799 20.8381 21.12 19.0703 21.12H15.5345Z"
      fill="currentColor"
      stroke="#currentColor"
      stroke-linecap="square"
      stroke-linejoin="round"
    />
  </g>
</svg>
