<svg xmlns="http://www.w3.org/2000/svg" fill="none" viewBox="0 0 48 48">
  <mask id="a" width="27" height="40" x="11" y="4" maskUnits="userSpaceOnUse">
    <path fill="#fff" d="M11 4.86h27v38.813H11z" />
  </mask>
  <g stroke="currentColor" mask="url(#a)">
    <path d="M25.175 5.554h-1.35c-6.71 0-12.15 5.586-12.15 12.476v12.476c0 6.89 5.44 12.475 12.15 12.475h1.35c6.711 0 12.15-5.585 12.15-12.475V18.03c0-6.89-5.44-12.476-12.15-12.476Z" />
    <path
      fill="currentColor"
      fill-rule="evenodd"
      d="M23.548 9.02c-2.788.044-4.6.68-6.473 2.773-1.583 1.768-1.878 4.619-1.983 7.982a1.675 1.675 0 0 0 1.68 1.721h6.594a1.134 1.134 0 0 0 1.134-1.134V9.972a.95.95 0 0 0-.952-.952Z"
      clip-rule="evenodd"
    />
  </g>
</svg>
