<svg xmlns="http://www.w3.org/2000/svg" fill="none" viewBox="0 0 24 24">
  <path
    fill="currentColor"
    d="M11.847 2c-.733.01-1.048.018-1.607.347-.964.566-1.276 1.853-.696 2.874l.834 1.47c.211.375.188.837-.058 1.17a.97.97 0 0 1-1.066.354l-.168-.05c-1.049-.308-2.285-.204-3.455.265-.741.297-1.313.757-2.033 1.402-1.438 1.29-2.248 4.483-.937 7.614.089.212.181.422.285.627a9.6 9.6 0 0 0 2.047 2.68c2.186 2.005 5.594 2.98 9.785 1.606 1.496-.49 2.286-1.019 3.477-2.062 1.651-1.446 2.9-3.312 3.392-5.347.521-2.156.434-3.215-.057-5.165-.32-1.274-.658-1.982-1.348-3.093-.973-1.569-2.4-2.933-4.198-3.778-1.521-.715-3.19-.927-4.197-.913M7.723 17.388c-.723.424-1.662.147-2.096-.619-.435-.765-.201-1.73.521-2.155.723-.425 1.662-.148 2.096.618s.202 1.731-.521 2.156m4.717 2.16c-.723.425-1.662.148-2.096-.617-.435-.767-.202-1.732.521-2.156s1.661-.148 2.096.618.201 1.731-.521 2.156m4.362-2.562c-.723.425-1.661.148-2.096-.618-.434-.766-.2-1.731.522-2.156.723-.424 1.661-.147 2.096.619s.201 1.73-.522 2.155m.519-5.236c-.723.425-1.661.148-2.096-.618s-.201-1.73.522-2.155 1.66-.148 2.096.618c.434.766.2 1.73-.522 2.155"
  />
</svg>
