<svg xmlns="http://www.w3.org/2000/svg" fill="none" viewBox="0 0 24 24">
  <g stroke-linecap="round" stroke-linejoin="round" clip-path="url(#a)">
    <path d="M12 21a9 9 0 0 1 0-18c2.387 0 4.676.843 6.364 2.343S21 8.878 21 11c0 1.06-.474 2.078-1.318 2.828S17.694 15 16.5 15H14a2 2 0 0 0-1 3.75A1.3 1.3 0 0 1 12 21" />
    <path fill="#D0D5DD" d="M7.5 11a.5.5 0 1 0 0-1 .5.5 0 0 0 0 1" />
    <path fill="#D0D5DD" d="M12 8a.5.5 0 1 0 0-1 .5.5 0 0 0 0 1" />
    <path fill="#D0D5DD" d="M16.5 11a.5.5 0 1 0 0-1 .5.5 0 0 0 0 1" />
  </g>
  <defs>
    <clipPath id="a">
      <rect width="24" height="24" fill="#fff" />
    </clipPath>
  </defs>
</svg>
