<svg
  xmlns="http://www.w3.org/2000/svg"
  width="24"
  height="25"
  fill="none"
  viewBox="0 0 24 25"
>
  <g stroke-linecap="round" stroke-linejoin="round" clip-path="url(#a)">
    <path d="M15 8.93h.01" />
    <path d="M17 4.93H7a3 3 0 0 0-3 3v10a3 3 0 0 0 3 3h10a3 3 0 0 0 3-3v-10a3 3 0 0 0-3-3" />
    <path d="m4 15.93 4-4c.456-.44.973-.67 1.5-.67s1.044.23 1.5.67l5 5" />
    <path d="m14 14.93 1-1c.456-.44.973-.67 1.5-.67s1.044.23 1.5.67l2 2" />
  </g>
  <defs>
    <clipPath id="a">
      <rect width="24" height="24" fill="#fff" transform="translate(0 .93)" />
    </clipPath>
  </defs>
</svg>
