<svg
  width="24"
  height="24"
  viewBox="0 0 24 24"
  fill="none"
  xmlns="http://www.w3.org/2000/svg"
>
  <path
    d="M22 11.5C22 5.70101 17.5228 1 12 1C6.47715 1 2 5.70101 2 11.5C2 17.299 6.47715 22 12 22C17.5228 22 22 17.299 22 11.5Z"
    fill="currentColor"
  />
  <path
    d="M16.5429 10.7042C16.6819 10.7849 16.7973 10.9009 16.8775 11.0406C16.9578 11.1802 17 11.3387 17 11.5C17 11.6613 16.9578 11.8198 16.8775 11.9594C16.7973 12.0991 16.6819 12.2151 16.5429 12.2958L10.3714 15.8769C10.2324 15.9575 10.0748 16 9.9143 16C9.75381 16 9.59614 15.9575 9.45716 15.8769C9.31817 15.7962 9.20275 15.6802 9.1225 15.5405C9.04225 15.4009 9 15.2424 9 15.0811V7.91891C9 7.75761 9.04225 7.59914 9.1225 7.45945C9.20275 7.31976 9.31817 7.20376 9.45716 7.12311C9.59614 7.04246 9.75381 7 9.9143 7C10.0748 7 10.2324 7.04246 10.3714 7.12311L16.5429 10.7042Z"
    fill="#323232"
  />
</svg>
