<svg xmlns="http://www.w3.org/2000/svg" fill="none" viewBox="0 0 46 46">
  <path
    stroke="currentColor"
    stroke-linecap="round"
    stroke-linejoin="round"
    d="M44.33 20.334A21.6 21.6 0 0 0 2.998 15M1.664 4.334V15h10.667M1.664 25.667a21.6 21.6 0 0 0 41.333 5.334m1.334 10.666V31.001H33.664"
  />
  <mask id="a" width="18" height="15" x="14" y="16" maskUnits="userSpaceOnUse">
    <path
      fill="#fff"
      d="M25.28 21.993c1.183 1.283 3.098 1.458 4.478.408s1.798-2.998.978-4.557-2.625-2.246-4.22-1.606c-1.596.64-2.49 2.408-2.089 4.135h-.852a.84.84 0 0 0-.597.256l-.401.417-.4-.417a.84.84 0 0 0-.598-.256h-.852c.4-1.727-.493-3.495-2.088-4.135s-3.4.047-4.221 1.606c-.82 1.56-.402 3.508.978 4.557s3.295.875 4.478-.408l.895.93-4.263 4.428a2.7 2.7 0 0 0-.75 1.878v1.328c0 .245.19.443.426.443h.247a.4.4 0 0 0 .307-.133zm-9.021-1.257a1.82 1.82 0 0 1-.206-2.238 1.67 1.67 0 0 1 2.073-.645c.751.326 1.175 1.158 1.013 1.986s-.864 1.423-1.678 1.42a1.67 1.67 0 0 1-1.202-.523m12.636-2.498c.487.433.699 1.113.549 1.76a1.74 1.74 0 0 1-1.26 1.308 1.67 1.67 0 0 1-1.694-.57 1.81 1.81 0 0 1-.548-1.76 1.74 1.74 0 0 1 1.259-1.308 1.67 1.67 0 0 1 1.694.57m-.477 12.629a.4.4 0 0 0 .306.133h.248a.435.435 0 0 0 .426-.443V29.23c0-.705-.27-1.38-.75-1.878l-3.206-3.338-1.808 1.877z"
    />
  </mask>
  <g mask="url(#a)">
    <path
      fill="currentColor"
      d="M33.22 11.55H18.366A4.366 4.366 0 0 0 14 15.918V32.23a4.366 4.366 0 0 0 4.366 4.366H33.22a4.366 4.366 0 0 0 4.367-4.366V15.917a4.366 4.366 0 0 0-4.367-4.366"
    />
  </g>
</svg>
