<svg
  xmlns="http://www.w3.org/2000/svg"
  width="24"
  height="24"
  fill="none"
  viewBox="0 0 24 24"
>
  <path
    stroke-linecap="round"
    stroke-linejoin="round"
    d="M9 4.5H7a2 2 0 0 0-2 2v12a2 2 0 0 0 2 2h10a2 2 0 0 0 2-2v-12a2 2 0 0 0-2-2h-2"
  />
  <path
    stroke-linecap="round"
    stroke-linejoin="round"
    d="M13 2.5h-2a2 2 0 1 0 0 4h2a2 2 0 1 0 0-4"
  />
  <path
    stroke-linecap="round"
    stroke-linejoin="round"
    d="M14 10.5h-2.5a1.5 1.5 0 1 0 0 3h1a1.5 1.5 0 1 1 0 3H10"
  />
  <path stroke-linecap="round" stroke-linejoin="round" d="M12 9.5v1m0 6v1" />
</svg>
