<svg
  xmlns="http://www.w3.org/2000/svg"
  width="24"
  height="25"
  fill="none"
  viewBox="0 0 24 25"
>
  <g stroke-linecap="round" stroke-linejoin="round" clip-path="url(#a)">
    <path d="M6 21.93a2 2 0 1 0 0-4 2 2 0 0 0 0 4" />
    <path d="M17 21.93a2 2 0 1 0 0-4 2 2 0 0 0 0 4" />
    <path d="M17 17.93H6v-14H4" />
    <path d="m20 6.93-1 7H6" />
    <path d="m10 10.93 6-6" />
    <path d="M10.5 5.93a.5.5 0 1 0 0-1 .5.5 0 0 0 0 1" />
    <path d="M15.5 10.93a.5.5 0 1 0 0-1 .5.5 0 0 0 0 1" />
  </g>
  <defs>
    <clipPath id="a">
      <rect width="24" height="24" fill="#fff" transform="translate(0 .93)" />
    </clipPath>
  </defs>
</svg>
