<svg xmlns="http://www.w3.org/2000/svg" fill="none" viewBox="0 0 48 48">
  <path
    fill="currentColor"
    stroke="currentColor"
    stroke-linecap="round"
    stroke-linejoin="round"
    d="M38.875 6H9.125C7.951 6 7 7.045 7 8.333v9.334C7 18.955 7.951 20 9.125 20h29.75C40.049 20 41 18.955 41 17.667V8.333C41 7.045 40.049 6 38.875 6"
  />
  <path
    stroke="currentColor"
    stroke-linecap="round"
    stroke-linejoin="bevel"
    d="M18.667 26H9.333A2.333 2.333 0 0 0 7 28.333v9.334A2.333 2.333 0 0 0 9.333 40h9.334A2.333 2.333 0 0 0 21 37.667v-9.334A2.333 2.333 0 0 0 18.667 26Z"
  />
  <path
    stroke="currentColor"
    stroke-linecap="round"
    stroke-linejoin="bevel"
    d="M38.667 26h-9.333A2.333 2.333 0 0 0 27 28.333v9.334A2.333 2.333 0 0 0 29.334 40h9.333A2.333 2.333 0 0 0 41 37.667v-9.334A2.333 2.333 0 0 0 38.667 26Z"
  />
</svg>
