<svg xmlns="http://www.w3.org/2000/svg" fill="none" viewBox="0 0 24 25">
  <g stroke-linecap="round" stroke-linejoin="round" clip-path="url(#a)">
    <path d="m4 15.93 3 3 3-3" />
    <path d="M7 6.93v12" />
    <path d="M17 3.93a2 2 0 0 1 2 2v3a2 2 0 1 1-4 0v-3a2 2 0 0 1 2-2" />
    <path d="M17 18.93a2 2 0 1 0 0-4 2 2 0 0 0 0 4" />
    <path d="M19 16.93v3a2 2 0 0 1-2 2h-1.5" />
  </g>
  <defs>
    <clipPath id="a">
      <rect width="24" height="24" fill="#fff" transform="translate(0 .93)" />
    </clipPath>
  </defs>
</svg>
