<svg
  width="24"
  height="24"
  viewBox="0 0 24 24"
  fill="none"
  xmlns="http://www.w3.org/2000/svg"
>
  <g clip-path="url(#clip0_1280_3001)">
    <path
      d="M11.9998 17.75L5.82784 20.995L7.00684 14.122L2.00684 9.25495L8.90684 8.25495L11.9928 2.00195L15.0788 8.25495L21.9788 9.25495L16.9788 14.122L18.1578 20.995L11.9998 17.75Z"
      fill="#E2E2E2"
      stroke="#E2E2E2"
      stroke-miterlimit="6.07152"
      stroke-linecap="round"
      stroke-linejoin="round"
    />
    <path
      d="M12.5331 16.8001V14.9641H8.90906V13.7641C9.92506 12.1001 10.6611 10.3201 11.1171 8.42407H12.6531C12.4291 9.37607 12.0491 10.3961 11.5131 11.4841C10.9851 12.5721 10.5571 13.3321 10.2291 13.7641H12.5331V11.6881C12.8371 11.0721 13.0931 10.3921 13.3011 9.64807H13.9971V13.7641H15.0171V14.9641H13.9971V16.8001H12.5331Z"
      fill="#000"
    />
  </g>
  <defs>
    <clipPath id="clip0_1280_3001">
      <rect width="24" height="24" fill="white" />
    </clipPath>
  </defs>
</svg>
