<svg width="24" height="24" viewBox="0 0 24 24" fill="none" xmlns="http://www.w3.org/2000/svg">
<path d="M9.73436 2H3.26564C2.56665 2 2 2.56665 2 3.26564V9.73436C2 10.4334 2.56665 11 3.26564 11H9.73436C10.4334 11 11 10.4334 11 9.73436V3.26564C11 2.56665 10.4334 2 9.73436 2Z" fill="white"/>
<path d="M9.73436 13H3.26564C2.56665 13 2 13.5666 2 14.2656V20.7344C2 21.4334 2.56665 22 3.26564 22H9.73436C10.4334 22 11 21.4334 11 20.7344V14.2656C11 13.5666 10.4334 13 9.73436 13Z" fill="white" fill-opacity='.7'/>
<path d="M20.7344 2H14.2656C13.5666 2 13 2.56665 13 3.26564V9.73436C13 10.4334 13.5666 11 14.2656 11H20.7344C21.4334 11 22 10.4334 22 9.73436V3.26564C22 2.56665 21.4334 2 20.7344 2Z" fill="white"/>
<path d="M20.7344 13H14.2656C13.5666 13 13 13.5666 13 14.2656V20.7344C13 21.4334 13.5666 22 14.2656 22H20.7344C21.4334 22 22 21.4334 22 20.7344V14.2656C22 13.5666 21.4334 13 20.7344 13Z" fill="white" fill-opacity='.7'/>
</svg>
