<svg width="24" height="24" viewBox="0 0 24 24" fill="none" xmlns="http://www.w3.org/2000/svg">
<g clip-path="url(#clip0_376_28536)">
<path d="M19.3636 4.63587C19.7386 5.01092 19.9492 5.51954 19.9492 6.04987C19.9492 6.58019 19.7386 7.08881 19.3636 7.46387C19.7919 8.66 19.8866 9.95014 19.6375 11.196C19.3884 12.4418 18.8049 13.5964 17.9496 14.5359L15.8276 16.6559C15.4412 17.1488 15.1759 17.7255 15.0531 18.3397C14.9303 18.9538 14.9534 19.5883 15.1206 20.1919L3.80762 8.87987C4.41106 9.04692 5.0453 9.06998 5.65928 8.94718C6.27326 8.82438 6.84984 8.55916 7.34262 8.17287L9.46362 6.04987C10.4031 5.19458 11.5577 4.61111 12.8035 4.36202C14.0493 4.11292 15.3395 4.20759 16.5356 4.63587C16.9107 4.26092 17.4193 4.05029 17.9496 4.05029C18.4799 4.05029 18.9886 4.26092 19.3636 4.63587V4.63587Z" stroke="#777777" stroke-width="2" stroke-linecap="round" stroke-linejoin="round"/>
<path d="M7.34259 12.4141L6.63559 13.1211C6.07293 13.6837 5.75684 14.4468 5.75684 15.2426C5.75684 16.0383 6.07293 16.8014 6.63559 17.3641C7.19825 17.9267 7.96137 18.2428 8.75709 18.2428C9.55281 18.2428 10.3159 17.9267 10.8786 17.3641L11.5856 16.6571" stroke="#777777" stroke-width="2" stroke-linecap="round" stroke-linejoin="round"/>
</g>
<defs>
<clipPath id="clip0_376_28536">
<rect width="24" height="24" fill="white"/>
</clipPath>
</defs>
</svg>
