<svg width="24" height="25" viewBox="0 0 24 25" fill="none" xmlns="http://www.w3.org/2000/svg">
<g clip-path="url(#clip0_376_23914)">
<path d="M22 4.93921C21 5.42921 20.02 5.62821 19 5.92921C17.879 4.66421 16.217 4.59421 14.62 5.19221C13.023 5.79021 11.977 7.25221 12 8.92921V9.92921C8.755 10.0122 5.865 8.53421 4 5.92921C4 5.92921 -0.182 13.3622 8 16.9292C6.128 18.1762 4.261 19.0172 2 18.9292C5.308 20.7322 8.913 21.3522 12.034 20.4462C15.614 19.4062 18.556 16.7232 19.685 12.7042C20.0218 11.4819 20.189 10.2191 20.182 8.95121C20.18 8.70221 21.692 6.17921 22 4.93821V4.93921Z" stroke="#777777" stroke-width="2" stroke-linecap="round" stroke-linejoin="round"/>
</g>
<defs>
<clipPath id="clip0_376_23914">
<rect width="24" height="24" fill="white" transform="translate(0 0.929199)"/>
</clipPath>
</defs>
</svg>
