<svg width="24" height="25" viewBox="0 0 24 25" fill="none" xmlns="http://www.w3.org/2000/svg">
<g clip-path="url(#clip0_376_29293)">
<path d="M18 8.9292H10C8.89543 8.9292 8 9.82463 8 10.9292V18.9292C8 20.0338 8.89543 20.9292 10 20.9292H18C19.1046 20.9292 20 20.0338 20 18.9292V10.9292C20 9.82463 19.1046 8.9292 18 8.9292Z" stroke="#777777" stroke-width="2" stroke-linecap="round" stroke-linejoin="round"/>
<path d="M16 8.9292V6.9292C16 6.39877 15.7893 5.89006 15.4142 5.51499C15.0391 5.13991 14.5304 4.9292 14 4.9292H6C5.46957 4.9292 4.96086 5.13991 4.58579 5.51499C4.21071 5.89006 4 6.39877 4 6.9292V14.9292C4 15.4596 4.21071 15.9683 4.58579 16.3434C4.96086 16.7185 5.46957 16.9292 6 16.9292H8" stroke="#777777" stroke-width="2" stroke-linecap="round" stroke-linejoin="round"/>
</g>
<defs>
<clipPath id="clip0_376_29293">
<rect width="24" height="24" fill="white" transform="translate(0 0.929199)"/>
</clipPath>
</defs>
</svg>
