<svg width="24" height="25" viewBox="0 0 24 25" fill="none" xmlns="http://www.w3.org/2000/svg">
<g clip-path="url(#clip0_376_25796)">
<path d="M9 15.9292L15 9.9292" stroke="#777777" stroke-width="2" stroke-linecap="round" stroke-linejoin="round"/>
<path d="M9.5 10.9292C9.77614 10.9292 10 10.7053 10 10.4292C10 10.1531 9.77614 9.9292 9.5 9.9292C9.22386 9.9292 9 10.1531 9 10.4292C9 10.7053 9.22386 10.9292 9.5 10.9292Z" fill="#D0D5DD" stroke="#777777" stroke-width="2" stroke-linecap="round" stroke-linejoin="round"/>
<path d="M14.5 15.9292C14.7761 15.9292 15 15.7053 15 15.4292C15 15.1531 14.7761 14.9292 14.5 14.9292C14.2239 14.9292 14 15.1531 14 15.4292C14 15.7053 14.2239 15.9292 14.5 15.9292Z" fill="#D0D5DD" stroke="#777777" stroke-width="2" stroke-linecap="round" stroke-linejoin="round"/>
<path d="M5.00046 8.12917C5.00046 7.5457 5.23225 6.98612 5.64483 6.57354C6.05741 6.16096 6.61698 5.92917 7.20046 5.92917H8.20046C8.78136 5.92884 9.33855 5.69877 9.75046 5.28917L10.4505 4.58917C10.6549 4.38357 10.898 4.22041 11.1657 4.10908C11.4334 3.99774 11.7205 3.94043 12.0105 3.94043C12.3004 3.94043 12.5875 3.99774 12.8552 4.10908C13.1229 4.22041 13.366 4.38357 13.5705 4.58917L14.2705 5.28917C14.6824 5.69877 15.2396 5.92884 15.8205 5.92917H16.8205C17.4039 5.92917 17.9635 6.16096 18.3761 6.57354C18.7887 6.98612 19.0205 7.5457 19.0205 8.12917V9.12917C19.0208 9.71007 19.2509 10.2673 19.6605 10.6792L20.3605 11.3792C20.5661 11.5836 20.7292 11.8267 20.8406 12.0944C20.9519 12.3621 21.0092 12.6492 21.0092 12.9392C21.0092 13.2291 20.9519 13.5162 20.8406 13.7839C20.7292 14.0517 20.5661 14.2947 20.3605 14.4992L19.6605 15.1992C19.2509 15.6111 19.0208 16.1683 19.0205 16.7492V17.7492C19.0205 18.3326 18.7887 18.8922 18.3761 19.3048C17.9635 19.7174 17.4039 19.9492 16.8205 19.9492H15.8205C15.2396 19.9495 14.6824 20.1796 14.2705 20.5892L13.5705 21.2892C13.366 21.4948 13.1229 21.6579 12.8552 21.7693C12.5875 21.8806 12.3004 21.9379 12.0105 21.9379C11.7205 21.9379 11.4334 21.8806 11.1657 21.7693C10.898 21.6579 10.6549 21.4948 10.4505 21.2892L9.75046 20.5892C9.33855 20.1796 8.78136 19.9495 8.20046 19.9492H7.20046C6.61698 19.9492 6.05741 19.7174 5.64483 19.3048C5.23225 18.8922 5.00046 18.3326 5.00046 17.7492V16.7492C5.00013 16.1683 4.77006 15.6111 4.36046 15.1992L3.66046 14.4992C3.45486 14.2947 3.2917 14.0517 3.18037 13.7839C3.06903 13.5162 3.01172 13.2291 3.01172 12.9392C3.01172 12.6492 3.06903 12.3621 3.18037 12.0944C3.2917 11.8267 3.45486 11.5836 3.66046 11.3792L4.36046 10.6792C4.77006 10.2673 5.00013 9.71007 5.00046 9.12917V8.12917" stroke="#777777" stroke-width="2" stroke-linecap="round" stroke-linejoin="round"/>
</g>
<defs>
<clipPath id="clip0_376_25796">
<rect width="24" height="24" fill="white" transform="translate(0 0.929199)"/>
</clipPath>
</defs>
</svg>
