<svg width="24" height="25" viewBox="0 0 24 25" fill="none" xmlns="http://www.w3.org/2000/svg">
<g clip-path="url(#clip0_376_25802)">
<path d="M9 15.9292L15 9.9292" stroke="#777777" stroke-width="2" stroke-linecap="round" stroke-linejoin="round"/>
<path d="M9.5 10.9292C9.77614 10.9292 10 10.7053 10 10.4292C10 10.1531 9.77614 9.9292 9.5 9.9292C9.22386 9.9292 9 10.1531 9 10.4292C9 10.7053 9.22386 10.9292 9.5 10.9292Z" fill="#D0D5DD" stroke="#777777" stroke-width="2" stroke-linecap="round" stroke-linejoin="round"/>
<path d="M14.5 15.9292C14.7761 15.9292 15 15.7053 15 15.4292C15 15.1531 14.7761 14.9292 14.5 14.9292C14.2239 14.9292 14 15.1531 14 15.4292C14 15.7053 14.2239 15.9292 14.5 15.9292Z" fill="#D0D5DD" stroke="#777777" stroke-width="2" stroke-linecap="round" stroke-linejoin="round"/>
<path d="M12 21.9292C16.9706 21.9292 21 17.8998 21 12.9292C21 7.95864 16.9706 3.9292 12 3.9292C7.02944 3.9292 3 7.95864 3 12.9292C3 17.8998 7.02944 21.9292 12 21.9292Z" stroke="#777777" stroke-width="2" stroke-linecap="round" stroke-linejoin="round"/>
</g>
<defs>
<clipPath id="clip0_376_25802">
<rect width="24" height="24" fill="white" transform="translate(0 0.929199)"/>
</clipPath>
</defs>
</svg>
