<svg width="24" height="24" viewBox="0 0 24 24" fill="none" xmlns="http://www.w3.org/2000/svg" stroke-width='2'>
<path d="M15.1346 7.90308L18.2933 4.78212M15.1346 7.90308L11.4264 11.568M15.1346 7.90308L17.8424 10.5785L21 7.45755L18.2933 4.78212M18.2933 4.78212L20.0982 3M11.4264 11.568C11.9006 12.0204 12.2788 12.5615 12.539 13.1599C12.7992 13.7583 12.9362 14.4019 12.9419 15.0532C12.9476 15.7044 12.822 16.3503 12.5724 16.953C12.3228 17.5558 11.9541 18.1034 11.488 18.5639C11.0219 19.0244 10.4676 19.3885 9.85746 19.635C9.24735 19.8816 8.59366 20.0056 7.93452 19.9998C7.27539 19.994 6.62402 19.8586 6.01843 19.6014C5.41284 19.3443 4.86516 18.9705 4.40736 18.5019C3.49699 17.5783 2.99143 16.3376 3.00011 15.0485C3.00879 13.7593 3.53103 12.5253 4.45376 11.6138C5.37648 10.7023 6.62544 10.1865 7.93024 10.1781C9.23504 10.1697 10.4907 10.6695 11.4253 11.5691L11.4264 11.568Z" stroke="#555555" stroke-linecap="round" stroke-linejoin="round"/>
</svg>
