<svg width="24" height="24" viewBox="0 0 24 24" fill="none" xmlns="http://www.w3.org/2000/svg">
<path d="M18.75 3H5.25C4.00736 3 3 4.04466 3 5.33333V7.66667C3 8.95534 4.00736 10 5.25 10H18.75C19.9926 10 21 8.95534 21 7.66667V5.33333C21 4.04466 19.9926 3 18.75 3Z" stroke="#555555" stroke-linecap="round" stroke-linejoin="round"/>
<path d="M18.75 14H5.25C4.00736 14 3 15.0447 3 16.3333V18.6667C3 19.9553 4.00736 21 5.25 21H18.75C19.9926 21 21 19.9553 21 18.6667V16.3333C21 15.0447 19.9926 14 18.75 14Z" stroke="#555555" stroke-linecap="round" stroke-linejoin="round"/>
</svg>
