<svg width="24" height="25" viewBox="0 0 24 25" fill="none" xmlns="http://www.w3.org/2000/svg">
<g clip-path="url(#clip0_376_27909)">
<path d="M12 14.9292C13.6569 14.9292 15 13.5861 15 11.9292C15 10.2723 13.6569 8.9292 12 8.9292C10.3431 8.9292 9 10.2723 9 11.9292C9 13.5861 10.3431 14.9292 12 14.9292Z" stroke="#777777" stroke-width="2" stroke-linecap="round" stroke-linejoin="round"/>
<path d="M17.657 17.5862L13.414 21.8292C13.039 22.2038 12.5306 22.4142 12.0005 22.4142C11.4704 22.4142 10.962 22.2038 10.587 21.8292L6.343 17.5862C5.22422 16.4673 4.46234 15.0419 4.15369 13.49C3.84504 11.9382 4.00349 10.3297 4.60901 8.86788C5.21452 7.4061 6.2399 6.15669 7.55548 5.27766C8.87107 4.39862 10.4178 3.92944 12 3.92944C13.5822 3.92944 15.1289 4.39862 16.4445 5.27766C17.7601 6.15669 18.7855 7.4061 19.391 8.86788C19.9965 10.3297 20.155 11.9382 19.8463 13.49C19.5377 15.0419 18.7758 16.4673 17.657 17.5862V17.5862Z" stroke="#777777" stroke-width="2" stroke-linecap="round" stroke-linejoin="round"/>
</g>
<defs>
<clipPath id="clip0_376_27909">
<rect width="24" height="24" fill="white" transform="translate(0 0.929199)"/>
</clipPath>
</defs>
</svg>
