<svg width="24" height="24" viewBox="0 0 24 24" fill="none" xmlns="http://www.w3.org/2000/svg">
<path d="M9 4.49996H7.00001C6.46957 4.49996 5.96085 4.71068 5.58579 5.08576C5.21072 5.46083 5 5.96953 5 6.49997V18.4999C5 19.0304 5.21072 19.5391 5.58579 19.9142C5.96085 20.2892 6.46957 20.5 7.00001 20.5H17C17.5304 20.5 18.0392 20.2892 18.4142 19.9142C18.7893 19.5391 19.0001 19.0304 19.0001 18.4999V6.49997C19.0001 5.96953 18.7893 5.46083 18.4142 5.08576C18.0392 4.71068 17.5304 4.49996 17 4.49996H15" stroke="#E2E2E2" stroke-width="0.96" stroke-linecap="round" stroke-linejoin="round"/>
<path d="M13 2.5H11C9.89543 2.5 9 3.39542 9 4.49999C9 5.60456 9.89543 6.50001 11 6.50001H13C14.1046 6.50001 15 5.60456 15 4.49999C15 3.39542 14.1046 2.5 13 2.5Z" stroke="#E2E2E2" stroke-width="0.96" stroke-linecap="round" stroke-linejoin="round"/>
<path d="M14 10.5H11.5C11.1022 10.5 10.7206 10.658 10.4393 10.9393C10.158 11.2206 10 11.6021 10 12C10 12.3978 10.158 12.7793 10.4393 13.0606C10.7206 13.3419 11.1022 13.5 11.5 13.5H12.5C12.8978 13.5 13.2794 13.658 13.5607 13.9393C13.842 14.2206 14 14.6021 14 15C14 15.3978 13.842 15.7793 13.5607 16.0606C13.2794 16.342 12.8978 16.4999 12.5 16.4999H10" stroke="#E2E2E2" stroke-width="0.96" stroke-linecap="round" stroke-linejoin="round"/>
<path d="M12 9.50003V10.5M12 16.5001V17.5" stroke="#E2E2E2" stroke-width="0.96" stroke-linecap="round" stroke-linejoin="round"/>
</svg>
