<svg width="24" height="25" viewBox="0 0 24 25" fill="none" xmlns="http://www.w3.org/2000/svg">
<g clip-path="url(#clip0_376_29555)">
<path d="M4 15.9292L7 18.9292L10 15.9292" stroke="#777777" stroke-width="2" stroke-linecap="round" stroke-linejoin="round"/>
<path d="M7 6.9292V18.9292" stroke="#777777" stroke-width="2" stroke-linecap="round" stroke-linejoin="round"/>
<path d="M17 14.9292C17.5304 14.9292 18.0391 15.1399 18.4142 15.515C18.7893 15.8901 19 16.3988 19 16.9292V19.9292C19 20.4596 18.7893 20.9683 18.4142 21.3434C18.0391 21.7185 17.5304 21.9292 17 21.9292C16.4696 21.9292 15.9609 21.7185 15.5858 21.3434C15.2107 20.9683 15 20.4596 15 19.9292V16.9292C15 16.3988 15.2107 15.8901 15.5858 15.515C15.9609 15.1399 16.4696 14.9292 17 14.9292V14.9292Z" stroke="#777777" stroke-width="2" stroke-linecap="round" stroke-linejoin="round"/>
<path d="M17 7.9292C18.1046 7.9292 19 7.03377 19 5.9292C19 4.82463 18.1046 3.9292 17 3.9292C15.8954 3.9292 15 4.82463 15 5.9292C15 7.03377 15.8954 7.9292 17 7.9292Z" stroke="#777777" stroke-width="2" stroke-linecap="round" stroke-linejoin="round"/>
<path d="M19 5.9292V8.9292C19 9.45963 18.7893 9.96834 18.4142 10.3434C18.0391 10.7185 17.5304 10.9292 17 10.9292H15.5" stroke="#777777" stroke-width="2" stroke-linecap="round" stroke-linejoin="round"/>
</g>
<defs>
<clipPath id="clip0_376_29555">
<rect width="24" height="24" fill="white" transform="translate(0 0.929199)"/>
</clipPath>
</defs>
</svg>
