<svg width="24" height="24" viewBox="0 0 24 24" fill="none" xmlns="http://www.w3.org/2000/svg">
  <g clip-path="url(#clip0_3_260)">
    <path d="M12 16.4444C14.4546 16.4444 16.4444 14.4546 16.4444 12C16.4444 9.5454 14.4546 7.55556 12 7.55556C9.5454 7.55556 7.55556 9.5454 7.55556 12C7.55556 14.4546 9.5454 16.4444 12 16.4444Z" fill="currentColor"/>
    <path d="M11.8833 20.6556C13.0353 20.6556 14.176 20.4287 15.2403 19.9878C16.3046 19.547 17.2717 18.9008 18.0862 18.0862C18.9008 17.2717 19.547 16.3046 19.9878 15.2403C20.4287 14.176 20.6556 13.0353 20.6556 11.8833C20.6556 10.7313 20.4287 9.59064 19.9878 8.52635C19.547 7.46205 18.9008 6.49501 18.0862 5.68044C17.2717 4.86586 16.3046 4.2197 15.2403 3.77886C14.176 3.33801 13.0353 3.11111 11.8833 3.11111C9.5568 3.11111 7.32555 4.03532 5.68044 5.68044C4.03533 7.32555 3.11111 9.5568 3.11111 11.8833C3.11111 14.2099 4.03533 16.4411 5.68044 18.0862C7.32555 19.7313 9.5568 20.6556 11.8833 20.6556Z" stroke="currentColor" stroke-opacity="0.5" stroke-linecap="round" stroke-linejoin="round"/>
  </g>
  <defs>
    <clipPath id="clip0_3_260">
      <rect width="20" height="20" fill="white" transform="translate(2 2)"/>
    </clipPath>
  </defs>
</svg>
