<svg width="168" height="24" viewBox="0 0 168 24" fill="none" xmlns="http://www.w3.org/2000/svg">
<path d="M0.12 19L5.4 5.28H9.08L14.36 19H11.14L10.16 16.3H4.18L3.2 19H0.12ZM5.04 13.9H9.3L8.08 10.52C8.02667 10.3733 7.96 10.2 7.88 10C7.81333 9.78667 7.74 9.55333 7.66 9.3C7.58 9.04667 7.5 8.8 7.42 8.56C7.35333 8.30667 7.28667 8.08 7.22 7.88H7.1C7.03333 8.13333 6.94667 8.43333 6.84 8.78C6.73333 9.11333 6.62667 9.44 6.52 9.76C6.41333 10.0667 6.32667 10.32 6.26 10.52L5.04 13.9ZM16.2327 19V10.62H14.7327V8.48H16.2327V7.32C16.2327 6.74667 16.326 6.24 16.5127 5.8C16.7127 5.34667 17.026 4.99333 17.4527 4.74C17.8793 4.48667 18.446 4.36 19.1527 4.36C19.3527 4.36 19.5593 4.37333 19.7727 4.4C19.9993 4.42667 20.2127 4.46667 20.4127 4.52C20.626 4.56 20.806 4.60667 20.9527 4.66V6.5H19.9527C19.6327 6.5 19.3927 6.58 19.2327 6.74C19.086 6.9 19.0127 7.13333 19.0127 7.44V8.48H20.9527V10.62H19.0127V19H16.2327ZM25.3966 19.24C24.7299 19.24 24.1899 19.12 23.7766 18.88C23.3632 18.64 23.0632 18.32 22.8766 17.92C22.6899 17.5067 22.5966 17.0533 22.5966 16.56V10.62H21.2966V8.48H22.6966L23.2166 5.48H25.3766V8.48H27.2966V10.62H25.3766V16.1C25.3766 16.42 25.4499 16.6667 25.5966 16.84C25.7432 17 25.9832 17.08 26.3166 17.08H27.2966V18.92C27.1366 18.9733 26.9499 19.02 26.7366 19.06C26.5232 19.1133 26.2966 19.1533 26.0566 19.18C25.8166 19.22 25.5966 19.24 25.3966 19.24ZM33.8725 19.24C32.7125 19.24 31.7392 19.0467 30.9525 18.66C30.1658 18.26 29.5725 17.6533 29.1725 16.84C28.7725 16.0267 28.5725 14.9933 28.5725 13.74C28.5725 12.4733 28.7725 11.44 29.1725 10.64C29.5725 9.82667 30.1592 9.22667 30.9325 8.84C31.7192 8.44 32.6792 8.24 33.8125 8.24C34.8792 8.24 35.7792 8.43333 36.5125 8.82C37.2458 9.19333 37.7992 9.78 38.1725 10.58C38.5458 11.3667 38.7325 12.3867 38.7325 13.64V14.36H31.3925C31.4192 14.9733 31.5125 15.4933 31.6725 15.92C31.8458 16.3467 32.1058 16.6667 32.4525 16.88C32.8125 17.08 33.2858 17.18 33.8725 17.18C34.1925 17.18 34.4792 17.14 34.7325 17.06C34.9992 16.98 35.2258 16.86 35.4125 16.7C35.5992 16.54 35.7458 16.34 35.8525 16.1C35.9592 15.86 36.0125 15.5867 36.0125 15.28H38.7325C38.7325 15.9467 38.6125 16.5267 38.3725 17.02C38.1325 17.5133 37.7992 17.9267 37.3725 18.26C36.9458 18.58 36.4325 18.8267 35.8325 19C35.2458 19.16 34.5925 19.24 33.8725 19.24ZM31.4325 12.6H35.8725C35.8725 12.2 35.8192 11.8533 35.7125 11.56C35.6192 11.2667 35.4858 11.0267 35.3125 10.84C35.1392 10.6533 34.9258 10.52 34.6725 10.44C34.4325 10.3467 34.1592 10.3 33.8525 10.3C33.3458 10.3 32.9192 10.3867 32.5725 10.56C32.2392 10.72 31.9792 10.9733 31.7925 11.32C31.6192 11.6533 31.4992 12.08 31.4325 12.6ZM40.7722 19V8.48H43.0722L43.2922 10.12H43.4322C43.5655 9.77333 43.7389 9.46 43.9522 9.18C44.1655 8.88667 44.4322 8.65333 44.7522 8.48C45.0722 8.30667 45.4455 8.22 45.8722 8.22C46.0989 8.22 46.3055 8.24667 46.4922 8.3C46.6789 8.34 46.8189 8.38 46.9122 8.42V10.94H46.0522C45.6389 10.94 45.2722 11 44.9522 11.12C44.6455 11.2267 44.3855 11.4 44.1722 11.64C43.9589 11.88 43.7989 12.1733 43.6922 12.52C43.5989 12.8667 43.5522 13.2733 43.5522 13.74V19H40.7722ZM52.6298 19.24C51.8965 19.24 51.2365 19.16 50.6498 19C50.0632 18.84 49.5632 18.62 49.1498 18.34C48.7365 18.0467 48.4165 17.7 48.1898 17.3C47.9765 16.9 47.8698 16.4467 47.8698 15.94C47.8698 15.8867 47.8698 15.8333 47.8698 15.78C47.8698 15.7267 47.8765 15.6867 47.8898 15.66H50.5698C50.5698 15.6867 50.5698 15.7133 50.5698 15.74C50.5698 15.7667 50.5698 15.7933 50.5698 15.82C50.5832 16.1533 50.6898 16.4267 50.8898 16.64C51.0898 16.84 51.3498 16.9867 51.6698 17.08C52.0032 17.1733 52.3498 17.22 52.7098 17.22C53.0298 17.22 53.3365 17.1933 53.6298 17.14C53.9365 17.0733 54.1898 16.96 54.3898 16.8C54.6032 16.64 54.7098 16.4333 54.7098 16.18C54.7098 15.86 54.5765 15.6133 54.3098 15.44C54.0565 15.2667 53.7165 15.1267 53.2898 15.02C52.8765 14.9133 52.4232 14.7933 51.9298 14.66C51.4765 14.5533 51.0232 14.4333 50.5698 14.3C50.1165 14.1533 49.7032 13.9667 49.3298 13.74C48.9698 13.5133 48.6765 13.22 48.4498 12.86C48.2232 12.4867 48.1098 12.02 48.1098 11.46C48.1098 10.9133 48.2298 10.44 48.4698 10.04C48.7098 9.62667 49.0365 9.28667 49.4498 9.02C49.8765 8.75333 50.3698 8.56 50.9298 8.44C51.5032 8.30667 52.1165 8.24 52.7698 8.24C53.3832 8.24 53.9565 8.30667 54.4898 8.44C55.0232 8.56 55.4898 8.74667 55.8898 9C56.2898 9.24 56.6032 9.54667 56.8298 9.92C57.0565 10.28 57.1698 10.6867 57.1698 11.14C57.1698 11.2333 57.1698 11.32 57.1698 11.4C57.1698 11.48 57.1632 11.5333 57.1498 11.56H54.4898V11.4C54.4898 11.16 54.4165 10.96 54.2698 10.8C54.1232 10.6267 53.9098 10.4933 53.6298 10.4C53.3632 10.3067 53.0365 10.26 52.6498 10.26C52.3832 10.26 52.1365 10.28 51.9098 10.32C51.6965 10.36 51.5098 10.42 51.3498 10.5C51.1898 10.58 51.0632 10.68 50.9698 10.8C50.8898 10.9067 50.8498 11.04 50.8498 11.2C50.8498 11.4267 50.9432 11.6133 51.1298 11.76C51.3298 11.8933 51.5898 12.0067 51.9098 12.1C52.2298 12.1933 52.5832 12.2933 52.9698 12.4C53.4498 12.5333 53.9498 12.6667 54.4698 12.8C55.0032 12.92 55.4965 13.0867 55.9498 13.3C56.4032 13.5133 56.7698 13.82 57.0498 14.22C57.3298 14.6067 57.4698 15.1333 57.4698 15.8C57.4698 16.44 57.3432 16.98 57.0898 17.42C56.8498 17.86 56.5098 18.2133 56.0698 18.48C55.6298 18.7467 55.1165 18.94 54.5298 19.06C53.9432 19.18 53.3098 19.24 52.6298 19.24ZM59.4831 19V4.54H62.2631V9.64H62.4031C62.6298 9.36 62.8965 9.12 63.2031 8.92C63.5231 8.70667 63.8765 8.54 64.2631 8.42C64.6631 8.3 65.0965 8.24 65.5631 8.24C66.2565 8.24 66.8631 8.36667 67.3831 8.62C67.9031 8.87333 68.3031 9.27333 68.5831 9.82C68.8765 10.3667 69.0231 11.08 69.0231 11.96V19H66.2431V12.4C66.2431 12.0667 66.2031 11.7867 66.1231 11.56C66.0431 11.32 65.9231 11.1267 65.7631 10.98C65.6165 10.82 65.4298 10.7067 65.2031 10.64C64.9765 10.5733 64.7231 10.54 64.4431 10.54C64.0298 10.54 63.6565 10.64 63.3231 10.84C62.9898 11.04 62.7298 11.3133 62.5431 11.66C62.3565 12.0067 62.2631 12.4067 62.2631 12.86V19H59.4831ZM76.3544 19.24C75.2077 19.24 74.2344 19.0467 73.4344 18.66C72.6344 18.26 72.0277 17.6533 71.6144 16.84C71.201 16.0133 70.9944 14.98 70.9944 13.74C70.9944 12.4733 71.201 11.44 71.6144 10.64C72.0277 9.82667 72.6344 9.22667 73.4344 8.84C74.2344 8.44 75.2077 8.24 76.3544 8.24C77.5277 8.24 78.5077 8.44 79.2944 8.84C80.0944 9.22667 80.701 9.82667 81.1144 10.64C81.5277 11.44 81.7344 12.4733 81.7344 13.74C81.7344 14.98 81.5277 16.0133 81.1144 16.84C80.701 17.6533 80.0944 18.26 79.2944 18.66C78.5077 19.0467 77.5277 19.24 76.3544 19.24ZM76.3544 17.08C76.9677 17.08 77.4544 16.9667 77.8144 16.74C78.1877 16.5133 78.461 16.1667 78.6344 15.7C78.8077 15.2333 78.8944 14.66 78.8944 13.98V13.5C78.8944 12.82 78.8077 12.2467 78.6344 11.78C78.461 11.3133 78.1877 10.9667 77.8144 10.74C77.4544 10.5 76.9677 10.38 76.3544 10.38C75.7544 10.38 75.2677 10.5 74.8944 10.74C74.5344 10.9667 74.2677 11.3133 74.0944 11.78C73.921 12.2467 73.8344 12.82 73.8344 13.5V13.98C73.8344 14.66 73.921 15.2333 74.0944 15.7C74.2677 16.1667 74.5344 16.5133 74.8944 16.74C75.2677 16.9667 75.7544 17.08 76.3544 17.08ZM88.62 19.24C87.4733 19.24 86.5 19.0467 85.7 18.66C84.9 18.26 84.2933 17.6533 83.88 16.84C83.4667 16.0133 83.26 14.98 83.26 13.74C83.26 12.4733 83.4667 11.44 83.88 10.64C84.2933 9.82667 84.9 9.22667 85.7 8.84C86.5 8.44 87.4733 8.24 88.62 8.24C89.7933 8.24 90.7733 8.44 91.56 8.84C92.36 9.22667 92.9667 9.82667 93.38 10.64C93.7933 11.44 94 12.4733 94 13.74C94 14.98 93.7933 16.0133 93.38 16.84C92.9667 17.6533 92.36 18.26 91.56 18.66C90.7733 19.0467 89.7933 19.24 88.62 19.24ZM88.62 17.08C89.2333 17.08 89.72 16.9667 90.08 16.74C90.4533 16.5133 90.7267 16.1667 90.9 15.7C91.0733 15.2333 91.16 14.66 91.16 13.98V13.5C91.16 12.82 91.0733 12.2467 90.9 11.78C90.7267 11.3133 90.4533 10.9667 90.08 10.74C89.72 10.5 89.2333 10.38 88.62 10.38C88.02 10.38 87.5333 10.5 87.16 10.74C86.8 10.9667 86.5333 11.3133 86.36 11.78C86.1867 12.2467 86.1 12.82 86.1 13.5V13.98C86.1 14.66 86.1867 15.2333 86.36 15.7C86.5333 16.1667 86.8 16.5133 87.16 16.74C87.5333 16.9667 88.02 17.08 88.62 17.08ZM99.1856 19.24C98.519 19.24 97.979 19.12 97.5656 18.88C97.1523 18.64 96.8523 18.32 96.6656 17.92C96.479 17.5067 96.3856 17.0533 96.3856 16.56V10.62H95.0856V8.48H96.4856L97.0056 5.48H99.1656V8.48H101.086V10.62H99.1656V16.1C99.1656 16.42 99.239 16.6667 99.3856 16.84C99.5323 17 99.7723 17.08 100.106 17.08H101.086V18.92C100.926 18.9733 100.739 19.02 100.526 19.06C100.312 19.1133 100.086 19.1533 99.8456 19.18C99.6056 19.22 99.3856 19.24 99.1856 19.24Z" fill="#E2E2E2"/>
<path d="M110 19.2465V4.75352H121.082V7.33099H113.033V10.5634H120.152V13.1197H113.033V16.6479H121.204V19.2465H110Z" fill="url(#paint0_linear_6327_105096)"/>
<path d="M123.4 19.2465V4.75352H129.063C130.505 4.75352 131.732 5.01408 132.743 5.53521C133.754 6.05634 134.53 6.85211 135.069 7.92253C135.622 8.97887 135.898 10.338 135.898 12C135.898 13.6479 135.622 15.007 135.069 16.0775C134.53 17.1479 133.754 17.9437 132.743 18.4648C131.732 18.9859 130.505 19.2465 129.063 19.2465H123.4ZM126.413 16.6479H129.042C129.649 16.6479 130.188 16.5563 130.66 16.3732C131.132 16.1901 131.523 15.9225 131.833 15.5704C132.143 15.2042 132.379 14.7535 132.541 14.2183C132.703 13.669 132.784 13.0352 132.784 12.3169V11.6831C132.784 10.9648 132.703 10.338 132.541 9.80282C132.379 9.25352 132.143 8.80282 131.833 8.4507C131.523 8.08451 131.132 7.80986 130.66 7.62676C130.188 7.42958 129.649 7.33099 129.042 7.33099H126.413V16.6479Z" fill="url(#paint1_linear_6327_105096)"/>
<path d="M137.946 19.2465V4.75352H140.959V19.2465H137.946Z" fill="url(#paint2_linear_6327_105096)"/>
<path d="M147.042 19.2465V7.39437H142.593V4.75352H154.545V7.39437H150.075V19.2465H147.042Z" fill="url(#paint3_linear_6327_105096)"/>
<path d="M161.575 19.5C160.766 19.5 159.997 19.4155 159.269 19.2465C158.541 19.0775 157.894 18.8099 157.328 18.4437C156.775 18.0634 156.337 17.5915 156.013 17.0282C155.703 16.4507 155.548 15.7535 155.548 14.9366C155.548 14.8662 155.548 14.7958 155.548 14.7254C155.548 14.6408 155.555 14.5775 155.568 14.5352H158.561C158.548 14.5775 158.541 14.6338 158.541 14.7042C158.541 14.7746 158.541 14.838 158.541 14.8944C158.541 15.3451 158.656 15.7254 158.885 16.0352C159.128 16.3451 159.478 16.5775 159.937 16.7324C160.395 16.8873 160.927 16.9648 161.534 16.9648C161.925 16.9648 162.269 16.9437 162.566 16.9014C162.876 16.8451 163.145 16.7746 163.374 16.6901C163.617 16.5915 163.813 16.4789 163.961 16.3521C164.123 16.2254 164.237 16.0775 164.305 15.9085C164.386 15.7394 164.426 15.5493 164.426 15.338C164.426 14.9577 164.305 14.6479 164.062 14.4085C163.833 14.169 163.509 13.9648 163.091 13.7958C162.687 13.6268 162.229 13.4718 161.716 13.331C161.204 13.1901 160.678 13.0493 160.139 12.9085C159.6 12.7535 159.074 12.5704 158.561 12.3592C158.049 12.1338 157.591 11.8662 157.186 11.5563C156.782 11.2465 156.458 10.8521 156.215 10.3732C155.973 9.89437 155.851 9.3169 155.851 8.64084C155.851 7.92253 155.993 7.30282 156.276 6.78169C156.573 6.26056 156.984 5.83099 157.51 5.49296C158.036 5.15493 158.642 4.90845 159.33 4.75352C160.017 4.58451 160.766 4.5 161.575 4.5C162.33 4.5 163.044 4.58451 163.718 4.75352C164.392 4.90845 164.986 5.16197 165.498 5.51408C166.01 5.8662 166.408 6.30986 166.691 6.84507C166.988 7.38028 167.136 8.01408 167.136 8.74648V9H164.204V8.83099C164.204 8.4507 164.096 8.12676 163.88 7.85915C163.664 7.59155 163.361 7.38028 162.97 7.22535C162.579 7.07042 162.121 6.99296 161.595 6.99296C161.029 6.99296 160.543 7.0493 160.139 7.16197C159.748 7.27465 159.444 7.44366 159.229 7.66901C159.027 7.88028 158.925 8.1338 158.925 8.42958C158.925 8.76761 159.04 9.0493 159.269 9.27465C159.512 9.48592 159.835 9.67606 160.24 9.84507C160.658 10 161.123 10.1408 161.635 10.2676C162.148 10.3944 162.673 10.5352 163.213 10.6901C163.752 10.8451 164.278 11.0282 164.79 11.2394C165.302 11.4507 165.761 11.7183 166.165 12.0423C166.57 12.3521 166.893 12.7394 167.136 13.2042C167.379 13.669 167.5 14.2254 167.5 14.8732C167.5 15.9859 167.244 16.8803 166.732 17.5563C166.219 18.2324 165.518 18.7254 164.628 19.0352C163.738 19.3451 162.721 19.5 161.575 19.5Z" fill="url(#paint4_linear_6327_105096)"/>
<defs>
<linearGradient id="paint0_linear_6327_105096" x1="173.177" y1="28.4015" x2="136.238" y2="-42.9633" gradientUnits="userSpaceOnUse">
<stop offset="0.214258" stop-color="#DB7E37"/>
<stop offset="0.807941" stop-color="#F9C446"/>
</linearGradient>
<linearGradient id="paint1_linear_6327_105096" x1="173.177" y1="28.4015" x2="136.238" y2="-42.9633" gradientUnits="userSpaceOnUse">
<stop offset="0.214258" stop-color="#DB7E37"/>
<stop offset="0.807941" stop-color="#F9C446"/>
</linearGradient>
<linearGradient id="paint2_linear_6327_105096" x1="173.177" y1="28.4015" x2="136.238" y2="-42.9633" gradientUnits="userSpaceOnUse">
<stop offset="0.214258" stop-color="#DB7E37"/>
<stop offset="0.807941" stop-color="#F9C446"/>
</linearGradient>
<linearGradient id="paint3_linear_6327_105096" x1="173.177" y1="28.4015" x2="136.238" y2="-42.9633" gradientUnits="userSpaceOnUse">
<stop offset="0.214258" stop-color="#DB7E37"/>
<stop offset="0.807941" stop-color="#F9C446"/>
</linearGradient>
<linearGradient id="paint4_linear_6327_105096" x1="173.177" y1="28.4015" x2="136.238" y2="-42.9633" gradientUnits="userSpaceOnUse">
<stop offset="0.214258" stop-color="#DB7E37"/>
<stop offset="0.807941" stop-color="#F9C446"/>
</linearGradient>
</defs>
</svg>
