<svg width="25" height="24" viewBox="0 0 25 24" fill="none" xmlns="http://www.w3.org/2000/svg">
<g clip-path="url(#clip0_2787_3764)">
<path fill-rule="evenodd" clip-rule="evenodd" d="M8.26554 8.00039L20.7345 8C21.3353 8 21.9116 8.24573 22.3364 8.68314C22.7613 9.12054 23 9.71379 23 10.3324V17.6676C23 18.2862 22.7613 18.8795 22.3364 19.3169C21.9116 19.7543 21.3353 20 20.7345 20H8.26554C7.66468 20 7.08843 19.7543 6.66356 19.3169C6.23869 18.8795 6 18.2862 6 17.6676V10.3324C6 9.71421 6.2378 9.12084 6.66296 8.68314C7.08813 8.24543 7.66513 8.0004 8.26554 8.00039Z" fill="#777777"/>
<path d="M3.5 7.88C3.5 6.55783 4.55234 5.5 5.83333 5.5H17.1667C18.4477 5.5 19.5 6.55783 19.5 7.88V14.12C19.5 15.4422 18.4477 16.5 17.1667 16.5H5.83333C4.55234 16.5 3.5 15.4422 3.5 14.12V7.88Z" stroke="#777777"/>
</g>
<defs>
<clipPath id="clip0_2787_3764">
<rect width="24" height="24" fill="white" transform="translate(0.571289)"/>
</clipPath>
</defs>
</svg>
