<svg width="24" height="24" viewBox="0 0 24 24" fill="none" xmlns="http://www.w3.org/2000/svg">
      <path d="M18 4.00006H6C4.89543 4.00006 4 4.89549 4 6.00006V8.00006C4 9.10463 4.89543 10.0001 6 10.0001H18C19.1045 10.0001 20 9.10463 20 8.00006V6.00006C20 4.89549 19.1045 4.00006 18 4.00006Z" fill="#777777" stroke="#777777" stroke-linecap="round" stroke-linejoin="round"/>
      <path d="M18 14.0001H6C4.89543 14.0001 4 14.8956 4 16.0001V18.0001C4 19.1046 4.89543 20.0001 6 20.0001H18C19.1045 20.0001 20 19.1046 20 18.0001V16.0001C20 14.8956 19.1045 14.0001 18 14.0001Z" stroke="#777777" stroke-linecap="round" stroke-linejoin="round"/>
  <defs>
    <clipPath id="clip0_48_53">
      <rect width="24" height="24" fill="white"/>
    </clipPath>
  </defs>
</svg>