<svg width="48" height="48" viewBox="0 0 48 48" fill="none" xmlns="http://www.w3.org/2000/svg">
<mask id="mask0_20_431" style="mask-type:luminance" maskUnits="userSpaceOnUse" x="11" y="4" width="27" height="40">
<path d="M11 4.86066H38V43.6732H11V4.86066Z" fill="white"/>
</mask>
<g mask="url(#mask0_20_431)">
<path d="M25.175 5.55421H23.8251C17.1155 5.55421 11.675 11.1398 11.675 18.0299V30.5056C11.675 37.3957 17.1155 42.9813 23.8251 42.9813H25.175C31.8862 42.9813 37.3251 37.3957 37.3251 30.5056V18.0299C37.3251 11.1398 31.8845 5.55421 25.175 5.55421Z" stroke="white"/>
<path fill-rule="evenodd" clip-rule="evenodd" d="M23.5481 9.02034C20.7604 9.06421 18.948 9.7004 17.0749 11.7929C15.492 13.5614 15.1967 16.4116 15.0921 19.7748C15.0859 19.9991 15.125 20.2223 15.2067 20.4312C15.2885 20.6401 15.4115 20.8305 15.5682 20.9911C15.725 21.1516 15.9124 21.279 16.1193 21.3657C16.3262 21.4525 16.5484 21.4968 16.7728 21.496H23.3659C23.5148 21.496 23.6622 21.4667 23.7998 21.4097C23.9374 21.3527 24.0624 21.2692 24.1677 21.1639C24.273 21.0586 24.3566 20.9336 24.4135 20.796C24.4705 20.6584 24.4999 20.5109 24.4999 20.362V9.97209C24.4999 9.71967 24.3996 9.47759 24.2211 9.2991C24.0426 9.12061 23.8005 9.02034 23.5481 9.02034Z" fill="white" stroke="white"/>
</g>
</svg>
