<svg width="24" height="24" viewBox="0 0 24 24" fill="none" xmlns="http://www.w3.org/2000/svg">
<path d="M19.875 3H4.125C3.50369 3 3 3.52234 3 4.16667V8.83333C3 9.47766 3.50369 10 4.125 10H19.875C20.4963 10 21 9.47766 21 8.83333V4.16667C21 3.52234 20.4963 3 19.875 3Z" fill="#777777" stroke="#777777" stroke-linecap="round" stroke-linejoin="round"/>
<path d="M8.83333 14H4.16667C3.52234 14 3 14.5224 3 15.1667V19.8333C3 20.4776 3.52234 21 4.16667 21H8.83333C9.47766 21 10 20.4776 10 19.8333V15.1667C10 14.5224 9.47766 14 8.83333 14Z" stroke="#777777" stroke-linecap="round" stroke-linejoin="bevel"/>
<path d="M19.8333 14H15.1667C14.5224 14 14 14.5224 14 15.1667V19.8333C14 20.4776 14.5224 21 15.1667 21H19.8333C20.4776 21 21 20.4776 21 19.8333V15.1667C21 14.5224 20.4776 14 19.8333 14Z" stroke="#777777" stroke-linecap="round" stroke-linejoin="bevel"/>
</svg>
