<svg width="48" height="48" viewBox="0 0 48 48" fill="none" xmlns="http://www.w3.org/2000/svg">
<path d="M38.875 6H9.125C7.95141 6 7 7.04468 7 8.33333V17.6667C7 18.9553 7.95141 20 9.125 20H38.875C40.0486 20 41 18.9553 41 17.6667V8.33333C41 7.04468 40.0486 6 38.875 6Z" fill="#777777" stroke="#777777" stroke-linecap="round" stroke-linejoin="round"/>
<path d="M18.6667 25.9999H9.33333C8.04468 25.9999 7 27.0446 7 28.3333V37.6666C7 38.9552 8.04468 39.9999 9.33333 39.9999H18.6667C19.9553 39.9999 21 38.9552 21 37.6666V28.3333C21 27.0446 19.9553 25.9999 18.6667 25.9999Z" stroke="#777777" stroke-linecap="round" stroke-linejoin="bevel"/>
<path d="M38.6669 25.9999H29.3336C28.045 25.9999 27.0002 27.0446 27.0002 28.3333V37.6666C27.0002 38.9552 28.045 39.9999 29.3336 39.9999H38.6669C39.9555 39.9999 41.0002 38.9552 41.0002 37.6666V28.3333C41.0002 27.0446 39.9555 25.9999 38.6669 25.9999Z" stroke="#777777" stroke-linecap="round" stroke-linejoin="bevel"/>
</svg>
