<svg width="24" height="24" viewBox="0 0 24 24" fill="none" xmlns="http://www.w3.org/2000/svg">
<path d="M14.9914 19.9024C15.7063 18.1124 17.4357 16.7071 19.6465 16.1295L21 15.775L19.6465 15.4205C17.4365 14.8431 15.7035 13.4384 14.9912 11.647L14.5539 10.5499L14.1165 11.647L14.9914 19.9024ZM14.9914 19.9024L14.5539 21ZM14.9914 19.9024L14.5539 21ZM14.5539 21L14.1165 19.9029ZM14.5539 21L14.1165 19.9029ZM14.1165 19.9029C13.4041 18.1118 11.671 16.7068 9.46117 16.1295L8.10767 15.775L9.46117 15.4205C11.671 14.8431 13.4041 13.4382 14.1165 11.647V19.9029ZM5.10199 10.8376C4.69112 10.0767 3.9391 9.4675 3 9.13501C3.93895 8.80255 4.69087 8.19355 5.1018 7.43281C5.51238 8.19292 6.2634 8.80155 7.20127 9.13419C6.26339 9.4681 5.51379 10.076 5.10199 10.8376ZM12.0334 3C12.2122 3.19721 12.427 3.37127 12.6704 3.51605C12.4274 3.6608 12.2128 3.83456 12.0341 4.03131C11.8555 3.83415 11.6409 3.6601 11.3977 3.51528C11.6405 3.37065 11.855 3.19687 12.0334 3Z" fill="#2279CE"/>
<path d="M14.9914 19.9024C15.7063 18.1124 17.4357 16.7071 19.6465 16.1295L21 15.775L19.6465 15.4205C17.4365 14.8431 15.7035 13.4384 14.9912 11.647L14.5539 10.5499L14.1165 11.647M14.9914 19.9024L14.1165 11.647M14.9914 19.9024L14.5539 21L14.1165 19.9029M14.1165 11.647C13.4041 13.4382 11.671 14.8431 9.46117 15.4205L8.10767 15.775L9.46117 16.1295C11.671 16.7068 13.4041 18.1118 14.1165 19.9029M14.1165 11.647V19.9029M5.10199 10.8376C4.69112 10.0767 3.9391 9.4675 3 9.13501C3.93895 8.80255 4.69087 8.19355 5.1018 7.43281C5.51238 8.19292 6.2634 8.80155 7.20127 9.13419C6.26339 9.4681 5.51379 10.076 5.10199 10.8376ZM12.0334 3C12.2122 3.19721 12.427 3.37127 12.6704 3.51605C12.4274 3.6608 12.2128 3.83456 12.0341 4.03131C11.8555 3.83415 11.6409 3.6601 11.3977 3.51528C11.6405 3.37065 11.855 3.19687 12.0334 3Z" stroke="#2279CE" stroke-width="2" stroke-linejoin="round"/>
</svg>
