<svg width="36" height="36" viewBox="0 0 36 36" fill="none" xmlns="http://www.w3.org/2000/svg">
<g clip-path="url(#clip0_2007_143562)">
<path fill-rule="evenodd" clip-rule="evenodd" d="M6.35937 1.14307C5.53095 1.14307 4.85938 1.81464 4.85938 2.64307V28.2145C4.85938 29.0429 5.53095 29.7145 6.35938 29.7145H17.2583C17.6685 29.7145 18.0011 29.3819 18.0011 28.9716C18.0011 25.2793 20.9944 22.286 24.6868 22.286H26.7471C27.2838 22.286 27.7189 21.8509 27.7189 21.3142V17.8847V6.67619C27.7189 6.27835 27.5608 5.8968 27.2795 5.61549L23.2461 1.58237C22.9648 1.30109 22.5833 1.14307 22.1854 1.14307H6.35937ZM7.62793 20.1216H9.22319V10.2256H7.62793V8.73926H12.6488V10.2256H11.0363V20.0492H15.4945V17.9831H17.0898V21.5356H7.62827L7.62793 20.1216ZM19.8909 20.1761H18.5136L18.5136 21.5359H23.0081V20.1762H21.6485V17.7478C21.6485 15.9535 22.4824 13.9777 24.44 13.9777C24.7295 13.9777 24.9474 14.0319 24.9474 14.0319V12.2923C24.9474 12.2923 24.7294 12.256 24.4939 12.256C23.0806 12.256 22.0112 13.3072 21.5946 14.6485H21.5583C21.5583 14.6485 21.5946 14.3766 21.5946 14.0139V13.4339C21.5946 12.6909 21.2136 12.3644 20.416 12.3644H18.3506V13.7241H19.4922C19.7465 13.7241 19.8909 13.8509 19.8909 14.1227V20.1761ZM20.9199 2.83191L25.8321 7.74368H20.9199V2.83191Z" fill="#777777"/>
<g clip-path="url(#clip1_2007_143562)">
<path d="M21.0723 32.5V33.5C21.0723 33.7652 21.1776 34.0196 21.3652 34.2071C21.5527 34.3946 21.807 34.5 22.0723 34.5H28.0723C28.3375 34.5 28.5918 34.3946 28.7794 34.2071C28.9669 34.0196 29.0723 33.7652 29.0723 33.5V32.5" stroke="#777777" stroke-linecap="round" stroke-linejoin="round"/>
<path d="M22.5723 28.5L25.0723 26L27.5723 28.5" stroke="#777777" stroke-linecap="round" stroke-linejoin="round"/>
<path d="M25.0703 26V32" stroke="#777777" stroke-linecap="round" stroke-linejoin="round"/>
</g>
</g>
<defs>
<clipPath id="clip0_2007_143562">
<rect width="34.2857" height="36" fill="white" transform="translate(0.857422)"/>
</clipPath>
<clipPath id="clip1_2007_143562">
<rect width="12" height="12" fill="white" transform="translate(19.0703 24)"/>
</clipPath>
</defs>
</svg>
