<svg width="24" height="24" viewBox="0 0 24 24" fill="none" xmlns="http://www.w3.org/2000/svg">
<path d="M15.3708 21C14.5235 20.9885 13.6814 20.8663 12.8652 20.6364C11.3345 20.214 9.81981 19.4544 8.91672 18.6528C7.39731 17.307 6.75547 15.3882 7.31834 13.8786C7.65916 12.9654 8.7285 11.4342 12.0565 11.4342H16.9591C16.8038 10.8351 16.6185 10.2443 16.4039 9.6642C15.2128 6.4608 13.4886 4.8372 11.281 4.8372C9.92372 4.8372 8.78966 5.5512 7.81353 7.0212C6.96209 8.3028 6.26859 10.119 5.75203 12.4182C4.85072 16.4352 4.81984 20.5266 4.81984 20.5674L3 20.5596C3 20.3856 3.02969 16.2492 3.97138 12.039C4.53544 9.5124 5.318 7.4838 6.29412 6.009C7.61581 4.0158 9.29375 3 11.281 3C14.2836 3 16.6438 5.0814 18.108 9.018C18.3976 9.80801 18.6401 10.6149 18.8341 11.4342H22V13.2714H19.2064C19.4219 14.5242 19.5407 15.7932 19.5597 17.0646C19.5597 18.7314 18.8312 19.9818 17.5089 20.5866C16.8379 20.8914 16.0898 21 15.3708 21ZM12.0594 13.2714C10.4266 13.2714 9.31869 13.7286 9.02122 14.5266C8.72434 15.3246 9.17856 16.4406 10.1161 17.2722C10.8161 17.8902 12.0826 18.5166 13.3449 18.8658C14.7402 19.2504 15.9847 19.2648 16.7572 18.915C17.1788 18.723 17.7398 18.3174 17.7398 17.067C17.7149 15.7932 17.5858 14.5237 17.3539 13.2714H12.0594Z" fill="white"/>
</svg>
