<svg width="24" height="24" viewBox="0 0 24 24" fill="none" xmlns="http://www.w3.org/2000/svg">
<path fill-rule="evenodd" clip-rule="evenodd" d="M20.25 7.54141C21.215 7.54141 22 8.33941 22 9.32041C22 10.031 21.587 10.6437 20.9933 10.9283L20.9858 10.9805C20.2505 15.9918 19.9762 16.8997 18.5572 18H5.44249C4.02375 16.8994 3.74942 15.9917 3.01425 10.9807L3.00675 10.9286C2.413 10.6437 2 10.031 2 9.32041C2 8.33941 2.785 7.54141 3.75 7.54141C4.715 7.54141 5.5 8.33941 5.5 9.32041C5.5 9.48278 5.47675 9.63911 5.43625 9.78852C5.7465 10.0452 6.06224 10.3385 6.36902 10.6254C6.88152 11.1047 7.64924 11.8227 7.9745 11.8603C8.42702 11.6788 9.84151 9.81545 10.7932 8.06418C10.4592 7.74015 10.25 7.28422 10.25 6.77899C10.25 5.798 11.035 5 12 5C12.965 5 13.75 5.798 13.75 6.77899C13.75 7.28422 13.5408 7.74015 13.2065 8.06443C14.1583 9.81574 15.5728 11.6791 16.0252 11.8605C16.3505 11.8229 17.1183 11.105 17.6308 10.6257C17.9375 10.3385 18.2532 10.0452 18.5635 9.78878C18.5233 9.63911 18.5 9.48278 18.5 9.32041C18.5 8.33941 19.285 7.54141 20.25 7.54141ZM20.8484 8.8613L20.7016 8.71209C20.757 8.75472 20.8065 8.80497 20.8484 8.8613Z" fill="#ABABAB"/>
<path d="M6 20.3889C6 20.1741 6.26863 20 6.60001 20H17.4C17.7314 20 18 20.1741 18 20.3889V21H6V20.3889Z" fill="#ABABAB"/>
</svg>
