<svg width="24" height="24" viewBox="0 0 24 24" fill="none" xmlns="http://www.w3.org/2000/svg">
<path d="M13.1135 5C13.3297 5 13.5135 5.0859 13.6649 5.25768C13.8162 5.42946 13.8919 5.62986 13.8919 5.85889C13.8919 6.20245 13.7802 6.50307 13.5567 6.76075C13.3333 7.01841 13.0559 7.14725 12.7243 7.14725C12.4937 7.14725 12.3135 7.05778 12.1838 6.87883C12.054 6.69991 11.9892 6.4816 11.9892 6.22392C11.9892 5.89469 12.0973 5.60839 12.3135 5.36503C12.5297 5.12169 12.7964 5 13.1135 5ZM12.4865 9.53068C12.7171 9.53068 12.8973 9.63447 13.027 9.84202C13.1568 10.0496 13.2216 10.318 13.2216 10.6472C13.2216 10.9407 13.1784 11.32 13.0919 11.7853L12.1405 16.5951C12.0973 16.7669 12.0757 16.9458 12.0757 17.1319C12.0757 17.4898 12.1477 17.6687 12.2919 17.6687C12.4721 17.6687 12.6883 17.5435 12.9405 17.2929C13.1928 17.0353 13.409 16.817 13.5892 16.638L13.7189 16.4877C13.7477 16.4877 13.8018 16.5557 13.8811 16.6917C13.9604 16.8277 14 16.9243 14 16.9816C13.8775 17.1892 13.6541 17.454 13.3297 17.7761C13.0126 18.0982 12.6667 18.3845 12.2919 18.635C11.9171 18.8783 11.5784 19 11.2757 19C11.045 19 10.8649 18.8962 10.7351 18.6886C10.6054 18.4811 10.5405 18.2127 10.5405 17.8834C10.5405 17.6687 10.591 17.2894 10.6919 16.7454L11.5784 12.2577C11.6504 11.8354 11.6865 11.5491 11.6865 11.3988C11.6865 11.0409 11.6144 10.862 11.4703 10.862C11.3838 10.862 11.2649 10.9192 11.1135 11.0337C10.9694 11.1483 10.8288 11.2771 10.6919 11.4203C10.5549 11.5562 10.454 11.6636 10.3892 11.7423L10.2811 11.8712C10.2523 11.8712 10.1982 11.8032 10.1189 11.6672C10.0396 11.5312 10 11.4346 10 11.3773C10.1153 11.184 10.3243 10.9443 10.627 10.658C10.9297 10.3645 11.254 10.1033 11.6 9.87424C11.9459 9.6452 12.2414 9.53068 12.4865 9.53068Z" fill="#1DA0BC"/>
</svg>