<svg width="24" height="24" viewBox="0 0 24 24" fill="none" xmlns="http://www.w3.org/2000/svg">
<path d="M11.8472 2.00059C11.1142 2.01031 10.7994 2.01792 10.2396 2.34726C9.27581 2.91332 8.96437 4.20015 9.54402 5.22146L10.3784 6.69162C10.5892 7.06645 10.5661 7.52827 10.3199 7.86176C10.0737 8.19526 9.65286 8.33474 9.25364 8.21519L9.08596 8.16573C8.0373 7.85707 6.80079 7.96143 5.63116 8.43018C4.88994 8.72725 4.31778 9.18656 3.59833 9.8316C2.15989 11.1213 1.35044 14.3145 2.66082 17.4458C2.74963 17.6581 2.84231 17.8682 2.94572 18.0734C3.21042 18.599 3.85176 19.7062 4.99264 20.7527C7.17874 22.7577 10.5868 23.7339 14.7784 22.359C16.2742 21.8685 17.064 21.3401 18.255 20.2968C19.906 18.8506 21.1541 16.9853 21.6467 14.9499C22.1684 12.7938 22.0808 11.7352 21.5904 9.78468C21.2701 8.51097 20.9317 7.80339 20.2419 6.69162C19.2687 5.12329 17.8426 3.75942 16.0445 2.91439C14.5227 2.19924 12.8539 1.98724 11.8472 2.00059ZM7.72267 17.3867C6.99982 17.8112 6.0614 17.5344 5.62667 16.7684C5.19193 16.0025 5.42551 15.0374 6.14837 14.6128C6.87123 14.1882 7.80964 14.465 8.24437 15.231C8.67911 15.997 8.44553 16.9621 7.72267 17.3867ZM12.4395 19.5477C11.7166 19.9723 10.7782 19.6954 10.3435 18.9295C9.90872 18.1635 10.1423 17.1984 10.8652 16.7738C11.588 16.3493 12.5264 16.6261 12.9612 17.3921C13.3959 18.158 13.1623 19.1231 12.4395 19.5477ZM16.8023 16.9853C16.0794 17.4099 15.141 17.133 14.7062 16.3671C14.2716 15.6011 14.5051 14.636 15.228 14.2115C15.9508 13.7869 16.8892 14.0637 17.324 14.8297C17.7587 15.5956 17.5251 16.5607 16.8023 16.9853ZM17.321 11.7494C16.598 12.1739 15.6596 11.8972 15.2249 11.1312C14.7902 10.3652 15.0237 9.40008 15.7467 8.97553C16.4695 8.55098 17.4079 8.82776 17.8426 9.59375C18.2774 10.3597 18.0438 11.3248 17.321 11.7494Z" fill="white"/>
</svg>
