<svg width="24" height="24" viewBox="0 0 24 24" fill="none" xmlns="http://www.w3.org/2000/svg">
<path d="M7.49997 3H4.50001C3.67156 3 3 3.57563 3 4.28573V19.7143C3 20.4244 3.67156 21 4.50001 21H7.49997C8.32842 21 8.99998 20.4244 8.99998 19.7143V4.28573C8.99998 3.57563 8.32842 3 7.49997 3Z" fill="#777777"/>
<path d="M19.5 3H16.5C15.6716 3 15 3.57563 15 4.28573V19.7143C15 20.4244 15.6716 21 16.5 21H19.5C20.3284 21 21 20.4244 21 19.7143V4.28573C21 3.57563 20.3284 3 19.5 3Z" fill="#777777"/>
</svg>
