<svg width="24" height="24" viewBox="0 0 24 24" fill="none" xmlns="http://www.w3.org/2000/svg">
<path d="M4 3.63112C3.99995 3.33586 4.08607 3.04613 4.24916 2.79283C4.41225 2.53954 4.64619 2.33219 4.92604 2.19289C5.20588 2.0536 5.52113 1.9876 5.83813 2.00192C6.15515 2.01624 6.46202 2.11036 6.72604 2.27423L20.2195 10.6439C20.4596 10.7929 20.6565 10.9946 20.7926 11.2313C20.9287 11.468 21 11.7323 21 12.0008C21 12.2693 20.9287 12.5335 20.7926 12.7703C20.6565 13.007 20.4596 13.2088 20.2195 13.3576L6.72604 21.7257C6.46202 21.8896 6.15515 21.9837 5.83813 21.9981C5.52113 22.0124 5.20588 21.9464 4.92604 21.8071C4.64619 21.6677 4.41225 21.4604 4.24916 21.2071C4.08607 20.9539 3.99995 20.6641 4 20.3689V3.63112Z" fill="#555555"/>
</svg>
