<svg width="24" height="24" viewBox="0 0 24 24" fill="none" xmlns="http://www.w3.org/2000/svg">
<path d="M4 4.46801C3.99996 4.20228 4.07594 3.94152 4.21985 3.71355C4.36375 3.48559 4.57017 3.29897 4.81709 3.1736C5.06401 3.04824 5.34217 2.98884 5.62188 3.00173C5.9016 3.01462 6.17237 3.09933 6.40533 3.24681L18.3113 10.7795C18.5232 10.9136 18.6969 11.0952 18.817 11.3082C18.9371 11.5212 19 11.7591 19 12.0007C19 12.2424 18.9371 12.4802 18.817 12.6933C18.6969 12.9063 18.5232 13.0879 18.3113 13.2219L6.40533 20.7532C6.17237 20.9007 5.9016 20.9854 5.62188 20.9983C5.34217 21.0112 5.06401 20.9518 4.81709 20.8264C4.57017 20.701 4.36375 20.5144 4.21985 20.2864C4.07594 20.0585 3.99996 19.7977 4 19.532V4.46801Z" fill="#555555
"/>
</svg>
