<svg width="24" height="24" viewBox="0 0 24 24" fill="none" xmlns="http://www.w3.org/2000/svg">
<mask id="mask0_10_313" style="mask-type:alpha" maskUnits="userSpaceOnUse" x="3" y="4" width="18" height="17">
<path d="M14.8362 10.7924C16.0776 12.2463 18.087 12.4441 19.535 11.2547C20.983 10.0654 21.422 7.8569 20.5614 6.09019C19.7008 4.3235 17.8069 3.54502 16.1325 4.26977C14.4582 4.99451 13.5213 6.99833 13.9415 8.95561H13.0469C12.8121 8.95672 12.5871 9.06126 12.4205 9.24668L12 9.71841L11.5795 9.24668C11.4128 9.06126 11.1879 8.95672 10.9532 8.95561H10.0585C10.4788 6.99833 9.54184 4.99451 7.86749 4.26977C6.19314 3.54502 4.2992 4.3235 3.43861 6.09019C2.57802 7.8569 3.01694 10.0654 4.46499 11.2547C5.91305 12.4441 7.9224 12.2463 9.16376 10.7924L10.1032 11.8462L5.62966 16.8647C5.12613 17.4288 4.84293 18.1942 4.84231 18.9925V20.4981C4.84231 20.7752 5.04259 21 5.28966 21H5.54913C5.67043 21.0018 5.78705 20.9474 5.87123 20.8493L14.8362 10.7924ZM5.37019 9.36712C4.76819 8.68776 4.67797 7.62591 5.1547 6.8312C5.63144 6.03649 6.54229 5.73038 7.33001 6.10014C8.11772 6.46989 8.5628 7.41249 8.39293 8.35125C8.22308 9.29001 7.48561 9.96334 6.63173 9.95932C6.15791 9.95707 5.70423 9.7441 5.37019 9.36712ZM18.6298 6.53672C19.1405 7.0273 19.3629 7.79759 19.2057 8.53089C19.0484 9.26419 18.5381 9.83672 17.8843 10.0131C17.2307 10.1895 16.5441 9.93998 16.1067 9.36712C15.5961 8.87654 15.3736 8.10625 15.5309 7.37296C15.6881 6.63966 16.1985 6.06711 16.8522 5.89072C17.5059 5.71433 18.1925 5.96386 18.6298 6.53672ZM18.1287 20.8493C18.213 20.9474 18.3296 21.0018 18.4508 21H18.7104C18.9574 21 19.1577 20.7752 19.1577 20.4981V18.9925C19.1571 18.1942 18.8738 17.4288 18.3704 16.8647L15.0062 13.0808L13.1094 15.2086L18.1287 20.8493Z" fill="white"/>
</mask>
<g mask="url(#mask0_10_313)">
<path d="M18.2591 -5.03141H2.67272C0.142247 -5.03141 -1.9091 -2.81584 -1.9091 -0.0827928V18.4039C-1.9091 21.1369 0.142247 23.3525 2.67272 23.3525H18.2591C20.7895 23.3525 22.8409 21.1369 22.8409 18.4039V-0.0827928C22.8409 -2.81584 20.7895 -5.03141 18.2591 -5.03141Z" fill="white"/>
</g>
</svg>
