<svg width="24" height="24" viewBox="0 0 24 24" fill="none" xmlns="http://www.w3.org/2000/svg">
<g clip-path="url(#clip0_1280_2999)">
<path d="M11.9998 17.75L5.82784 20.995L7.00684 14.122L2.00684 9.25495L8.90684 8.25495L11.9928 2.00195L15.0788 8.25495L21.9788 9.25495L16.9788 14.122L18.1578 20.995L11.9998 17.75Z" fill="#E2E2E2" stroke="#E2E2E2" stroke-miterlimit="6.07152" stroke-linecap="round" stroke-linejoin="round"/>
<path d="M11.9928 16.9439C11.1128 16.9439 10.4088 16.7039 9.88083 16.2239C9.36083 15.7359 9.10083 15.0759 9.10083 14.2439H10.6128C10.6128 14.7079 10.7368 15.0759 10.9848 15.3479C11.2328 15.6119 11.5688 15.7439 11.9928 15.7439C12.4088 15.7439 12.7368 15.6039 12.9768 15.3239C13.2248 15.0439 13.3488 14.6399 13.3488 14.1119C13.3488 13.6319 13.2288 13.2639 12.9888 13.0079C12.7488 12.7519 12.4288 12.6239 12.0288 12.6239C11.5008 12.6239 11.0808 12.8519 10.7688 13.3079L9.37683 13.1279L9.71283 8.56787H14.4408V9.89987H10.9848L10.8528 11.9279C11.3088 11.6079 11.8328 11.4479 12.4248 11.4479C13.1368 11.4479 13.7208 11.6759 14.1768 12.1319C14.6328 12.5879 14.8608 13.2479 14.8608 14.1119C14.8608 15.0079 14.6048 15.7039 14.0928 16.1999C13.5808 16.6959 12.8808 16.9439 11.9928 16.9439Z" fill="#1C1C1C"/>
</g>
<defs>
<clipPath id="clip0_1280_2999">
<rect width="24" height="24" fill="white"/>
</clipPath>
</defs>
</svg>
